<?xml version="1.0" encoding="UTF-8" standalone="no"?>
<svg
   xmlns:dc="http://purl.org/dc/elements/1.1/"
   xmlns:cc="http://creativecommons.org/ns#"
   xmlns:rdf="http://www.w3.org/1999/02/22-rdf-syntax-ns#"
   xmlns:svg="http://www.w3.org/2000/svg"
   xmlns="http://www.w3.org/2000/svg"
   xmlns:xlink="http://www.w3.org/1999/xlink"
   xmlns:sodipodi="http://sodipodi.sourceforge.net/DTD/sodipodi-0.dtd"
   xmlns:inkscape="http://www.inkscape.org/namespaces/inkscape"
   inkscape:export-ydpi="23.801651"
   inkscape:export-xdpi="23.801651"
   inkscape:export-filename="/home/klaus/Desktop/Brionvega-Doney.png"
   sodipodi:docname="dvbb.svg"
   inkscape:version="0.47+devel r"
   id="svg2"
   version="1.1"
   viewBox="0 0 192 192"
   height="192pt"
   width="192pt">
  <metadata
     id="metadata110">
    <rdf:RDF>
      <cc:Work
         rdf:about="">
        <dc:format>image/svg+xml</dc:format>
        <dc:type
           rdf:resource="http://purl.org/dc/dcmitype/StillImage" />
        <dc:title />
      </cc:Work>
    </rdf:RDF>
  </metadata>
  <defs
     id="defs108">
    <inkscape:perspective
       sodipodi:type="inkscape:persp3d"
       inkscape:vp_x="0 : 120 : 1"
       inkscape:vp_y="0 : 1000 : 0"
       inkscape:vp_z="240 : 120 : 1"
       inkscape:persp3d-origin="120 : 80 : 1"
       id="perspective77" />
    <filter
       id="filter3674"
       inkscape:label="Sharpen"
       x="0"
       y="0"
       width="1"
       height="1"
       inkscape:menu="Image effects"
       inkscape:menu-tooltip="Sharpen edges and boundaries within the object, force=0.15"
       color-interpolation-filters="sRGB">
      <feConvolveMatrix
         id="feConvolveMatrix3676"
         order="3 3"
         kernelMatrix="0 -0.15 0 -0.15 1.6 -0.15 0 -0.15 0"
         divisor="1"
         in="SourceGraphic"
         targetX="1"
         targetY="1"
         result="fbSourceGraphic" />
      <feColorMatrix
         result="fbSourceGraphicAlpha"
         in="fbSourceGraphic"
         values="0 0 0 -1 0 0 0 0 -1 0 0 0 0 -1 0 0 0 0 1 0"
         id="feColorMatrix3698" />
      <feConvolveMatrix
         id="feConvolveMatrix3700"
         order="3 3"
         kernelMatrix="0 -0.15 0 -0.15 1.6 -0.15 0 -0.15 0"
         divisor="1"
         in="fbSourceGraphic"
         targetX="1"
         targetY="1" />
    </filter>
    <filter
       id="filter3678"
       inkscape:label="Sharpen"
       x="0"
       y="0"
       width="1"
       height="1"
       inkscape:menu="Image effects"
       inkscape:menu-tooltip="Sharpen edges and boundaries within the object, force=0.15"
       color-interpolation-filters="sRGB">
      <feConvolveMatrix
         id="feConvolveMatrix3680"
         order="3 3"
         kernelMatrix="0 -0.15 0 -0.15 1.6 -0.15 0 -0.15 0"
         divisor="1"
         in="SourceGraphic"
         targetX="1"
         targetY="1" />
    </filter>
    <filter
       inkscape:collect="always"
       id="filter3834">
      <feGaussianBlur
         inkscape:collect="always"
         stdDeviation="0.61993091"
         id="feGaussianBlur3836" />
    </filter>
    <filter
       inkscape:collect="always"
       id="filter3930"
       x="-0.17709228"
       width="1.3541846"
       y="-0.20964831"
       height="1.4192966">
      <feGaussianBlur
         inkscape:collect="always"
         stdDeviation="0.69795415"
         id="feGaussianBlur3932" />
    </filter>
    <filter
       inkscape:collect="always"
       id="filter3978"
       x="-0.070992214"
       width="1.1419844"
       y="-0.10284392"
       height="1.2056878">
      <feGaussianBlur
         inkscape:collect="always"
         stdDeviation="1.8357403"
         id="feGaussianBlur3980" />
    </filter>
    <filter
       inkscape:collect="always"
       id="filter4068">
      <feGaussianBlur
         inkscape:collect="always"
         stdDeviation="0.29396107"
         id="feGaussianBlur4070" />
    </filter>
    <filter
       inkscape:collect="always"
       id="filter4072">
      <feGaussianBlur
         inkscape:collect="always"
         stdDeviation="0.29697672"
         id="feGaussianBlur4074" />
    </filter>
    <inkscape:perspective
       id="perspective2838"
       inkscape:persp3d-origin="0.5 : 0.33333333 : 1"
       inkscape:vp_z="1 : 0.5 : 1"
       inkscape:vp_y="0 : 1000 : 0"
       inkscape:vp_x="0 : 0.5 : 1"
       sodipodi:type="inkscape:persp3d" />
    <filter
       id="filter3559"
       inkscape:label="Neon"
       inkscape:menu="Bevels"
       inkscape:menu-tooltip="Neon light effect"
       x="-0.25"
       y="-0.25"
       width="1.5"
       height="1.5"
       color-interpolation-filters="sRGB">
      <feGaussianBlur
         id="feGaussianBlur3561"
         stdDeviation="1"
         result="result1" />
      <feComposite
         in2="result1"
         id="feComposite3563"
         in="result1"
         result="result4"
         operator="in" />
      <feGaussianBlur
         id="feGaussianBlur3565"
         stdDeviation="7"
         result="result6"
         in="result4" />
      <feComposite
         in2="result4"
         id="feComposite3567"
         operator="over"
         in="result6"
         result="result8" />
      <feComposite
         in2="result8"
         id="feComposite3569"
         operator="in"
         result="fbSourceGraphic"
         in="result6" />
      <feSpecularLighting
         id="feSpecularLighting3571"
         specularExponent="45"
         specularConstant="2"
         surfaceScale="2.5"
         lighting-color="rgb(255,255,255)"
         result="result1"
         in="fbSourceGraphic">
        <fePointLight
           id="fePointLight3573"
           z="20000"
           y="-10000"
           x="-5000" />
      </feSpecularLighting>
      <feComposite
         in2="fbSourceGraphic"
         id="feComposite3575"
         operator="in"
         result="result2"
         in="result1" />
      <feComposite
         in2="result2"
         id="feComposite3577"
         k3="1.5"
         k2="1.2"
         operator="arithmetic"
         result="result4"
         in="fbSourceGraphic" />
      <feComposite
         in2="result4"
         id="feComposite3579"
         operator="over"
         in="result9"
         result="result9" />
      <feBlend
         in2="result9"
         id="feBlend3581"
         mode="screen" />
    </filter>
    <filter
       id="filter3583"
       inkscape:label="Neon"
       inkscape:menu="Bevels"
       inkscape:menu-tooltip="Neon light effect"
       x="-0.25"
       y="-0.25"
       width="1.5"
       height="1.5"
       color-interpolation-filters="sRGB">
      <feGaussianBlur
         id="feGaussianBlur3585"
         stdDeviation="1"
         result="result1" />
      <feComposite
         in2="result1"
         id="feComposite3587"
         in="result1"
         result="result4"
         operator="in" />
      <feGaussianBlur
         id="feGaussianBlur3589"
         stdDeviation="7"
         result="result6"
         in="result4" />
      <feComposite
         in2="result4"
         id="feComposite3591"
         operator="over"
         in="result6"
         result="result8" />
      <feComposite
         in2="result8"
         id="feComposite3593"
         operator="in"
         result="fbSourceGraphic"
         in="result6" />
      <feSpecularLighting
         id="feSpecularLighting3595"
         specularExponent="45"
         specularConstant="2"
         surfaceScale="2.5"
         lighting-color="rgb(255,255,255)"
         result="result1"
         in="fbSourceGraphic">
        <fePointLight
           id="fePointLight3597"
           z="20000"
           y="-10000"
           x="-5000" />
      </feSpecularLighting>
      <feComposite
         in2="fbSourceGraphic"
         id="feComposite3599"
         operator="in"
         result="result2"
         in="result1" />
      <feComposite
         in2="result2"
         id="feComposite3601"
         k3="1.5"
         k2="1.2"
         operator="arithmetic"
         result="result4"
         in="fbSourceGraphic" />
      <feComposite
         in2="result4"
         id="feComposite3603"
         operator="over"
         in="result9"
         result="result9" />
      <feBlend
         in2="result9"
         id="feBlend3605"
         mode="screen" />
    </filter>
    <filter
       id="filter3607"
       inkscape:label="Neon"
       inkscape:menu="Bevels"
       inkscape:menu-tooltip="Neon light effect"
       x="-0.25"
       y="-0.25"
       width="1.5"
       height="1.5"
       color-interpolation-filters="sRGB">
      <feGaussianBlur
         id="feGaussianBlur3609"
         stdDeviation="1"
         result="result1" />
      <feComposite
         in2="result1"
         id="feComposite3611"
         in="result1"
         result="result4"
         operator="in" />
      <feGaussianBlur
         id="feGaussianBlur3613"
         stdDeviation="7"
         result="result6"
         in="result4" />
      <feComposite
         in2="result4"
         id="feComposite3615"
         operator="over"
         in="result6"
         result="result8" />
      <feComposite
         in2="result8"
         id="feComposite3617"
         operator="in"
         result="fbSourceGraphic"
         in="result6" />
      <feSpecularLighting
         id="feSpecularLighting3619"
         specularExponent="45"
         specularConstant="2"
         surfaceScale="2.5"
         lighting-color="rgb(255,255,255)"
         result="result1"
         in="fbSourceGraphic">
        <fePointLight
           id="fePointLight3621"
           z="20000"
           y="-10000"
           x="-5000" />
      </feSpecularLighting>
      <feComposite
         in2="fbSourceGraphic"
         id="feComposite3623"
         operator="in"
         result="result2"
         in="result1" />
      <feComposite
         in2="result2"
         id="feComposite3625"
         k3="1.5"
         k2="1.2"
         operator="arithmetic"
         result="result4"
         in="fbSourceGraphic" />
      <feComposite
         in2="result4"
         id="feComposite3627"
         operator="over"
         in="result9"
         result="result9" />
      <feBlend
         in2="result9"
         id="feBlend3629"
         mode="screen" />
    </filter>
    <filter
       id="filter3631"
       inkscape:label="Neon"
       inkscape:menu="Bevels"
       inkscape:menu-tooltip="Neon light effect"
       x="-0.25"
       y="-0.25"
       width="1.5"
       height="1.5"
       color-interpolation-filters="sRGB">
      <feGaussianBlur
         id="feGaussianBlur3633"
         stdDeviation="1"
         result="result1" />
      <feComposite
         in2="result1"
         id="feComposite3635"
         in="result1"
         result="result4"
         operator="in" />
      <feGaussianBlur
         id="feGaussianBlur3637"
         stdDeviation="7"
         result="result6"
         in="result4" />
      <feComposite
         in2="result4"
         id="feComposite3639"
         operator="over"
         in="result6"
         result="result8" />
      <feComposite
         in2="result8"
         id="feComposite3641"
         operator="in"
         result="fbSourceGraphic"
         in="result6" />
      <feSpecularLighting
         id="feSpecularLighting3643"
         specularExponent="45"
         specularConstant="2"
         surfaceScale="2.5"
         lighting-color="rgb(255,255,255)"
         result="result1"
         in="fbSourceGraphic">
        <fePointLight
           id="fePointLight3645"
           z="20000"
           y="-10000"
           x="-5000" />
      </feSpecularLighting>
      <feComposite
         in2="fbSourceGraphic"
         id="feComposite3647"
         operator="in"
         result="result2"
         in="result1" />
      <feComposite
         in2="result2"
         id="feComposite3649"
         k3="1.5"
         k2="1.2"
         operator="arithmetic"
         result="result4"
         in="fbSourceGraphic" />
      <feComposite
         in2="result4"
         id="feComposite3651"
         operator="over"
         in="result9"
         result="result9" />
      <feBlend
         in2="result9"
         id="feBlend3653"
         mode="screen" />
    </filter>
    <filter
       id="filter3655"
       inkscape:label="Neon"
       inkscape:menu="Bevels"
       inkscape:menu-tooltip="Neon light effect"
       x="-0.25"
       y="-0.25"
       width="1.5"
       height="1.5"
       color-interpolation-filters="sRGB">
      <feGaussianBlur
         id="feGaussianBlur3657"
         stdDeviation="1"
         result="result1" />
      <feComposite
         in2="result1"
         id="feComposite3659"
         in="result1"
         result="result4"
         operator="in" />
      <feGaussianBlur
         id="feGaussianBlur3661"
         stdDeviation="7"
         result="result6"
         in="result4" />
      <feComposite
         in2="result4"
         id="feComposite3663"
         operator="over"
         in="result6"
         result="result8" />
      <feComposite
         in2="result8"
         id="feComposite3665"
         operator="in"
         result="fbSourceGraphic"
         in="result6" />
      <feSpecularLighting
         id="feSpecularLighting3667"
         specularExponent="45"
         specularConstant="2"
         surfaceScale="2.5"
         lighting-color="rgb(255,255,255)"
         result="result1"
         in="fbSourceGraphic">
        <fePointLight
           id="fePointLight3669"
           z="20000"
           y="-10000"
           x="-5000" />
      </feSpecularLighting>
      <feComposite
         in2="fbSourceGraphic"
         id="feComposite3671"
         operator="in"
         result="result2"
         in="result1" />
      <feComposite
         in2="result2"
         id="feComposite3673"
         k3="1.5"
         k2="1.2"
         operator="arithmetic"
         result="result4"
         in="fbSourceGraphic" />
      <feComposite
         in2="result4"
         id="feComposite3675"
         operator="over"
         in="result9"
         result="result9" />
      <feBlend
         in2="result9"
         id="feBlend3677"
         mode="screen" />
    </filter>
    <radialGradient
       inkscape:collect="always"
       xlink:href="#linearGradient6221"
       id="radialGradient4326"
       gradientUnits="userSpaceOnUse"
       gradientTransform="matrix(0.982963,0,0,0.508943,0.37414,16.84139)"
       cx="21.96048"
       cy="34.498356"
       fx="21.96048"
       fy="34.498356"
       r="12.727922" />
    <linearGradient
       inkscape:collect="always"
       id="linearGradient6221">
      <stop
         style="stop-color:black;stop-opacity:1;"
         offset="0"
         id="stop6223" />
      <stop
         style="stop-color:black;stop-opacity:0;"
         offset="1"
         id="stop6225" />
    </linearGradient>
    <radialGradient
       inkscape:collect="always"
       xlink:href="#linearGradient6221"
       id="radialGradient6227"
       cx="21.96048"
       cy="34.498356"
       fx="21.96048"
       fy="34.498356"
       r="12.727922"
       gradientTransform="matrix(0.982963,0,0,0.508943,0.37414,16.84139)"
       gradientUnits="userSpaceOnUse" />
    <linearGradient
       inkscape:collect="always"
       xlink:href="#linearGradient5210"
       id="linearGradient5325"
       gradientUnits="userSpaceOnUse"
       gradientTransform="translate(41.96397,-27.37022)"
       x1="-10.69499"
       y1="41.105709"
       x2="-5.479228"
       y2="41.017323" />
    <linearGradient
       inkscape:collect="always"
       id="linearGradient5210">
      <stop
         style="stop-color:#729fcf;stop-opacity:1"
         offset="0"
         id="stop5212" />
      <stop
         style="stop-color:#295ead;stop-opacity:1"
         offset="1"
         id="stop5214" />
    </linearGradient>
    <linearGradient
       inkscape:collect="always"
       xlink:href="#linearGradient2796"
       id="linearGradient2802"
       x1="29.432758"
       y1="18.474344"
       x2="27.225063"
       y2="20.911844"
       gradientUnits="userSpaceOnUse" />
    <linearGradient
       id="linearGradient2796">
      <stop
         style="stop-color:#d6d6d1;stop-opacity:1;"
         offset="0"
         id="stop2798" />
      <stop
         style="stop-color:#a2a298;stop-opacity:1;"
         offset="1"
         id="stop2800" />
    </linearGradient>
    <linearGradient
       inkscape:collect="always"
       xlink:href="#linearGradient2808"
       id="linearGradient2806"
       gradientUnits="userSpaceOnUse"
       gradientTransform="matrix(0.579842,0,0,0.676482,34.96935,-13.25847)"
       x1="-6.9787297"
       y1="37.126617"
       x2="-9.9043236"
       y2="36.848248" />
    <linearGradient
       id="linearGradient2808">
      <stop
         id="stop2810"
         offset="0"
         style="stop-color:white;stop-opacity:1;" />
      <stop
         id="stop2812"
         offset="1"
         style="stop-color:white;stop-opacity:0.2937853" />
    </linearGradient>
    <linearGradient
       inkscape:collect="always"
       xlink:href="#linearGradient5220"
       id="linearGradient5327"
       gradientUnits="userSpaceOnUse"
       gradientTransform="matrix(0.579842,0,0,0.676482,38.80719,-11.92056)"
       x1="-8.9375"
       y1="40.375"
       x2="-7"
       y2="40.375" />
    <linearGradient
       inkscape:collect="always"
       id="linearGradient5220">
      <stop
         style="stop-color:#0c1d35;stop-opacity:1"
         offset="0"
         id="stop5222" />
      <stop
         style="stop-color:white;stop-opacity:0.2937853"
         offset="1"
         id="stop5224" />
    </linearGradient>
    <linearGradient
       inkscape:collect="always"
       xlink:href="#linearGradient5280"
       id="linearGradient5310"
       gradientUnits="userSpaceOnUse"
       gradientTransform="matrix(1,0,0,1.125,10.18406,-6.709383)"
       x1="-7.1332517"
       y1="37.776779"
       x2="-7.93502"
       y2="45.846867" />
    <linearGradient
       id="linearGradient5280"
       inkscape:collect="always">
      <stop
         id="stop5282"
         offset="0"
         style="stop-color:#0c1d35;stop-opacity:1" />
      <stop
         id="stop5284"
         offset="1"
         style="stop-color:#898989;stop-opacity:1" />
    </linearGradient>
    <linearGradient
       gradientTransform="matrix(0.99527217,-0.67410546,0.61169455,0.90312654,99.916816,104.44669)"
       inkscape:collect="always"
       xlink:href="#linearGradient2834"
       id="linearGradient2840"
       x1="37.624947"
       y1="13.160365"
       x2="39.844299"
       y2="9.9728651"
       gradientUnits="userSpaceOnUse" />
    <linearGradient
       inkscape:collect="always"
       id="linearGradient2834">
      <stop
         style="stop-color:white;stop-opacity:1;"
         offset="0"
         id="stop2836" />
      <stop
         style="stop-color:white;stop-opacity:0;"
         offset="1"
         id="stop2838" />
    </linearGradient>
    <radialGradient
       r="12.727922"
       fy="34.498356"
       fx="21.96048"
       cy="34.498356"
       cx="21.96048"
       gradientTransform="matrix(0.982963,0,0,0.508943,0.37414,16.84139)"
       gradientUnits="userSpaceOnUse"
       id="radialGradient3035"
       xlink:href="#linearGradient6221"
       inkscape:collect="always" />
    <filter
       inkscape:collect="always"
       id="filter3842"
       x="-0.10653845"
       width="1.2130769"
       y="-0.13246434"
       height="1.2649287">
      <feGaussianBlur
         inkscape:collect="always"
         stdDeviation="3.6827038"
         id="feGaussianBlur3844" />
    </filter>
    <linearGradient
       id="linearGradient4919">
      <stop
         style="stop-color:#429eff;stop-opacity:1;"
         offset="0"
         id="stop4921" />
      <stop
         style="stop-color:#0044a7;stop-opacity:1;"
         offset="1"
         id="stop4923" />
    </linearGradient>
    <linearGradient
       inkscape:collect="always"
       id="linearGradient4952">
      <stop
         style="stop-color:#ffffff;stop-opacity:1;"
         offset="0"
         id="stop4954" />
      <stop
         style="stop-color:#ffffff;stop-opacity:0;"
         offset="1"
         id="stop4956" />
    </linearGradient>
    <linearGradient
       id="linearGradient2617">
      <stop
         id="stop2619"
         offset="0"
         style="stop-color:#fbfbfa;stop-opacity:1;" />
      <stop
         id="stop2621"
         offset="1"
         style="stop-color:#d3d7cf" />
    </linearGradient>
    <linearGradient
       inkscape:collect="always"
       id="linearGradient2980">
      <stop
         style="stop-color:#000000;stop-opacity:1;"
         offset="0"
         id="stop2982" />
      <stop
         style="stop-color:#000000;stop-opacity:0;"
         offset="1"
         id="stop2984" />
    </linearGradient>
    <linearGradient
       id="linearGradient2698">
      <stop
         id="stop2700"
         offset="0"
         style="stop-color:#555753" />
      <stop
         style="stop-color:#a3a5a2;stop-opacity:1;"
         offset="0.70238096"
         id="stop2706" />
      <stop
         id="stop2702"
         offset="1"
         style="stop-color:#888a85" />
    </linearGradient>
    <linearGradient
       id="linearGradient2690"
       inkscape:collect="always">
      <stop
         id="stop2692"
         offset="0"
         style="stop-color:#2e3436" />
      <stop
         id="stop2694"
         offset="1"
         style="stop-color:#555753" />
    </linearGradient>
    <linearGradient
       inkscape:collect="always"
       id="linearGradient19900">
      <stop
         style="stop-color:#888a85"
         offset="0"
         id="stop19902" />
      <stop
         style="stop-color:#d3d7cf"
         offset="1"
         id="stop19904" />
    </linearGradient>
    <linearGradient
       inkscape:collect="always"
       id="linearGradient19914">
      <stop
         style="stop-color:#000000;stop-opacity:1;"
         offset="0"
         id="stop19916" />
      <stop
         style="stop-color:#000000;stop-opacity:0;"
         offset="1"
         id="stop19918" />
    </linearGradient>
    <linearGradient
       id="linearGradient2609"
       inkscape:collect="always">
      <stop
         id="stop2611"
         offset="0"
         style="stop-color:#ffffff;stop-opacity:1" />
      <stop
         id="stop2613"
         offset="1"
         style="stop-color:#eeeeec" />
    </linearGradient>
    <linearGradient
       inkscape:collect="always"
       id="linearGradient23434">
      <stop
         style="stop-color:#2e3436"
         offset="0"
         id="stop23436" />
      <stop
         style="stop-color:#555753"
         offset="1"
         id="stop23438" />
    </linearGradient>
    <linearGradient
       inkscape:collect="always"
       id="linearGradient4931">
      <stop
         style="stop-color:#babdb6;stop-opacity:1;"
         offset="0"
         id="stop4933" />
      <stop
         style="stop-color:#888a85"
         offset="1"
         id="stop4935" />
    </linearGradient>
    <linearGradient
       inkscape:collect="always"
       id="linearGradient11102">
      <stop
         style="stop-color:#ffffff;stop-opacity:1;"
         offset="0"
         id="stop11104" />
      <stop
         style="stop-color:#ffffff;stop-opacity:0;"
         offset="1"
         id="stop11106" />
    </linearGradient>
    <linearGradient
       id="linearGradient2843">
      <stop
         style="stop-color:#eeeeec;stop-opacity:1"
         offset="0"
         id="stop2845" />
      <stop
         style="stop-color:white;stop-opacity:1;"
         offset="1"
         id="stop2847" />
    </linearGradient>
    <radialGradient
       inkscape:collect="always"
       xlink:href="#linearGradient4952"
       id="radialGradient3408"
       gradientUnits="userSpaceOnUse"
       gradientTransform="matrix(6.1754971,-1.6276908,1.4675714,5.3878109,-27.804577,-8.480339)"
       cx="16.829521"
       cy="24.743624"
       fx="16.829521"
       fy="24.743624"
       r="16.924616" />
    <linearGradient
       inkscape:collect="always"
       xlink:href="#linearGradient19900"
       id="linearGradient3410"
       gradientUnits="userSpaceOnUse"
       gradientTransform="matrix(2.7676814,0,0,2.7224737,54.529971,36.434075)"
       x1="40.25"
       y1="41"
       x2="43.0625"
       y2="38.434578" />
    <linearGradient
       inkscape:collect="always"
       xlink:href="#linearGradient19914"
       id="linearGradient3412"
       gradientUnits="userSpaceOnUse"
       gradientTransform="matrix(2.7676814,0,0,2.7224737,54.529966,36.43408)"
       x1="33.985317"
       y1="32.045906"
       x2="37.211494"
       y2="35.272079" />
    <radialGradient
       inkscape:collect="always"
       xlink:href="#linearGradient4919"
       id="radialGradient3414"
       gradientUnits="userSpaceOnUse"
       gradientTransform="matrix(1.459545,0,0,1.345339,-7.403138,-10.82184)"
       cx="17.062258"
       cy="28.851427"
       fx="17.062258"
       fy="28.851427"
       r="13.5" />
    <radialGradient
       inkscape:collect="always"
       xlink:href="#linearGradient2617"
       id="radialGradient3416"
       gradientUnits="userSpaceOnUse"
       gradientTransform="matrix(0,-1.686609,1.66336,0,41.65431,111.7396)"
       cx="59.787472"
       cy="10.901535"
       fx="59.787472"
       fy="10.901535"
       r="10.55559" />
    <radialGradient
       inkscape:collect="always"
       xlink:href="#linearGradient2980"
       id="radialGradient3418"
       gradientUnits="userSpaceOnUse"
       gradientTransform="matrix(1,0,0,0.34,0,19.89607)"
       cx="28.284271"
       cy="30.145554"
       fx="28.284271"
       fy="30.145554"
       r="13.258252" />
    <linearGradient
       inkscape:collect="always"
       xlink:href="#linearGradient2698"
       id="linearGradient3420"
       gradientUnits="userSpaceOnUse"
       x1="81.332451"
       y1="55.106758"
       x2="82.919647"
       y2="53.511261" />
    <linearGradient
       inkscape:collect="always"
       xlink:href="#linearGradient2690"
       id="linearGradient3422"
       gradientUnits="userSpaceOnUse"
       x1="81.096306"
       y1="57.148193"
       x2="83.629295"
       y2="54.615208" />
    <radialGradient
       inkscape:collect="always"
       xlink:href="#linearGradient2609"
       id="radialGradient3424"
       gradientUnits="userSpaceOnUse"
       gradientTransform="matrix(0,1.143443,-1.247217,-1.248581e-6,41.735,-54.25682)"
       cx="45.094624"
       cy="-2.6936908"
       fx="45.094624"
       fy="-2.6936908"
       r="10.498367" />
    <linearGradient
       inkscape:collect="always"
       xlink:href="#linearGradient23434"
       id="linearGradient3426"
       gradientUnits="userSpaceOnUse"
       x1="55.878288"
       y1="12.472493"
       x2="52.5"
       y2="-4.6213989" />
    <linearGradient
       inkscape:collect="always"
       xlink:href="#linearGradient4931"
       id="linearGradient3428"
       gradientUnits="userSpaceOnUse"
       x1="54.1129"
       y1="12.846775"
       x2="50.079948"
       y2="-3.8813655" />
    <radialGradient
       inkscape:collect="always"
       xlink:href="#linearGradient11102"
       id="radialGradient3430"
       gradientUnits="userSpaceOnUse"
       gradientTransform="matrix(0.946826,0,0,0.946826,0.469351,0.499261)"
       cx="8.0402098"
       cy="9.5280285"
       fx="8.0402098"
       fy="9.5280285"
       r="9.8125" />
    <radialGradient
       inkscape:collect="always"
       xlink:href="#linearGradient2980"
       id="radialGradient3432"
       gradientUnits="userSpaceOnUse"
       gradientTransform="matrix(1,0,0,0.34,0,19.89607)"
       cx="28.284271"
       cy="30.145554"
       fx="28.284271"
       fy="30.145554"
       r="13.258252" />
    <linearGradient
       inkscape:collect="always"
       xlink:href="#linearGradient2843"
       id="linearGradient3434"
       gradientUnits="userSpaceOnUse"
       x1="17.25"
       y1="12.5625"
       x2="21"
       y2="28.4375" />
  </defs>
  <sodipodi:namedview
     pagecolor="#ffffff"
     bordercolor="#666666"
     borderopacity="0"
     objecttolerance="10"
     gridtolerance="10"
     guidetolerance="10"
     inkscape:pageopacity="0"
     inkscape:pageshadow="2"
     inkscape:window-width="1144"
     inkscape:window-height="938"
     id="namedview106"
     showgrid="false"
     showguides="true"
     inkscape:guide-bbox="true"
     inkscape:zoom="2"
     inkscape:cx="129.96244"
     inkscape:cy="108.47965"
     inkscape:window-x="130"
     inkscape:window-y="25"
     inkscape:window-maximized="0"
     inkscape:current-layer="svg2"
     inkscape:snap-nodes="true"
     inkscape:snap-grids="false"
     inkscape:snap-global="true" />
  <path
     d="M 0,0 192,0 192,192 0,192 0,0 z"
     id="path4"
     style="fill:none"
     inkscape:export-filename="/home/klaus/Bilder/dvb/dvb-settings64.png"
     inkscape:export-xdpi="23.900415"
     inkscape:export-ydpi="23.900415" />
  <path
     fill="#f66747"
     d="M 58.75,23.26 C 69.77,17.49 83.169899,11.887157 95.189899,8.5671573 L 98.65,10.07 134.7,24.26 c 2.04,1.11 4.12,2.14 6.33,2.85 3.55,1.05 12.23401,4.447056 15.13401,6.767056 l -0.30274,0.52873 c 10.396,6.228728 -19.12274,9.749899 -25.80274,16.719899 C 128.44853,52.195685 125.76,52.86 124.13,53.9 117.51,53.8 111.53,48.16 105.55,45.95 90.12,38.05 74.8,29.86 58.75,23.26 z"
     id="path8"
     sodipodi:nodetypes="ccccccccccc"
     inkscape:export-filename="/home/klaus/Bilder/dvb/dvb-settings64.png"
     inkscape:export-xdpi="23.900415"
     inkscape:export-ydpi="23.900415" />
  <path
     fill="#adaca4"
     d="m 52.04,26.89 c 2.29,-1.66 3.89,-2.98 6.71,-3.23 16.05,6.6 31.37,14.39 46.8,22.29 C 97.74,49.46 90.52,37.98 82.58,43.28 74.35,40.31 67.1,35.28 59,32.01 56.56,30.54 52.4,30.39 52.04,26.89 z"
     id="path10"
     sodipodi:nodetypes="cccccc"
     inkscape:export-filename="/home/klaus/Bilder/dvb/dvb-settings64.png"
     inkscape:export-xdpi="23.900415"
     inkscape:export-ydpi="23.900415" />
  <path
     fill="#ee5a3f"
     d="M 17.73,52.68 C 25.85,45 41.9,32.37 52.04,26.89 c 0.36,3.5 4.52,3.65 6.96,5.12 8.1,3.27 15.35,8.3 23.58,11.27 9.03,5.61 19.02,9.48 28.07,15.06 0.08,0.99 -0.01,1.97 -0.25,2.94 -1.42,0.85 -2.83,1.72 -4.21,2.63 -6.89,3.64 -11.142944,10.912742 -17.442944,15.422742 -2.02,-0.34 -3.59,0.271472 -5.587056,0.787258 1.164214,1.634214 -0.75,0.66 -1,0.89 -0.744315,2.519899 -3.147258,5.734214 -4.417258,6.354214 C 63.06827,79.33145 46.347806,71.686097 34.97,62.78 c -4.8,-3.87 -18.48,-2 -17.24,-10.1 z"
     id="path14"
     sodipodi:nodetypes="ccccccccccccc"
     inkscape:export-filename="/home/klaus/Bilder/dvb/dvb-settings64.png"
     inkscape:export-xdpi="23.900415"
     inkscape:export-ydpi="23.900415" />
  <path
     fill="#bec2c5"
     d=" M 155.72 34.74 C 160.66 34.24 165.13 38.63 169.70 40.30 C 172.26 41.73 169.47 42.32 167.99 43.03 C 163.92 40.93 159.78 38.98 155.76 36.81 C 155.73 36.12 155.72 35.43 155.72 34.74 Z"
     id="path18"
     inkscape:export-filename="/home/klaus/Bilder/dvb/dvb-settings64.png"
     inkscape:export-xdpi="23.900415"
     inkscape:export-ydpi="23.900415" />
  <path
     fill="#444e47"
     d=" M 138.41 44.90 C 143.64 41.25 149.46 38.09 155.76 36.81 C 159.78 38.98 163.92 40.93 167.99 43.03 C 166.91 46.74 162.33 47.84 159.56 50.16 C 153.18 44.39 145.00 48.65 138.41 44.90 Z"
     id="path20"
     inkscape:export-filename="/home/klaus/Bilder/dvb/dvb-settings64.png"
     inkscape:export-xdpi="23.900415"
     inkscape:export-ydpi="23.900415" />
  <path
     fill="#9d9c90"
     d=" M 82.58 43.28 C 90.52 37.98 97.74 49.46 105.55 45.95 C 111.53 48.16 116.51 53.20 123.13 53.30 C 118.98 56.10 114.86 58.99 110.40 61.28 C 110.64 60.31 110.73 59.33 110.65 58.34 C 101.60 52.76 91.61 48.89 82.58 43.28 Z"
     id="path22"
     inkscape:export-filename="/home/klaus/Bilder/dvb/dvb-settings64.png"
     inkscape:export-xdpi="23.900415"
     inkscape:export-ydpi="23.900415" />
  <path
     fill="#9fa8ad"
     d=" M 167.99 43.03 C 169.16 43.81 173.29 43.63 172.59 44.59 C 169.82 45.67 170.73 48.94 168.91 50.81 C 167.86 51.80 166.63 52.91 168.74 53.54 C 166.95 56.52 164.02 58.79 161.08 56.06 C 158.96 57.61 156.81 59.20 154.02 59.08 C 154.23 58.50 154.66 57.34 154.87 56.76 C 146.96 61.24 139.23 66.08 131.86 71.40 C 131.77 70.53 131.70 69.66 131.64 68.79 C 141.22 63.01 150.61 56.87 159.56 50.16 C 162.33 47.84 166.91 46.74 167.99 43.03 Z"
     id="path24"
     inkscape:export-filename="/home/klaus/Bilder/dvb/dvb-settings64.png"
     inkscape:export-xdpi="23.900415"
     inkscape:export-ydpi="23.900415" />
  <path
     fill="#404a49"
     d="m 168.91,50.81 c 1.82,-1.87 0.91,-5.14 3.68,-6.22 4.13,1.12 3.39,4.24 4.35,6.63 -0.09,1.35 0.09,2.73 0.79,3.91 0.07,1.66 1.81,3.33 2.43,4.89 l 1.5,15.38 c -2,-0.07 -6.82,-14.65 -8.73,-15.28 -0.51,-3.43 -2.2,-6.43 -4.02,-9.31 z"
     id="path28"
     sodipodi:nodetypes="cccccccc"
     inkscape:export-filename="/home/klaus/Bilder/dvb/dvb-settings64.png"
     inkscape:export-xdpi="23.900415"
     inkscape:export-ydpi="23.900415" />
  <path
     fill="#4e5858"
     d=" M 160.00 53.00 C 160.20 51.56 162.03 49.69 163.59 50.23 C 163.76 51.82 161.52 53.38 160.00 53.00 Z"
     id="path32"
     inkscape:export-filename="/home/klaus/Bilder/dvb/dvb-settings64.png"
     inkscape:export-xdpi="23.900415"
     inkscape:export-ydpi="23.900415" />
  <path
     fill="#737c83"
     d=" M 168.74 53.54 C 166.63 52.91 167.86 51.80 168.91 50.81 C 170.73 53.69 172.42 56.69 172.93 60.12 C 175.20 65.59 177.79 72.15 173.04 77.39 C 168.20 71.95 169.85 56.68 157.65 62.76 C 154.64 64.31 151.92 66.37 148.98 68.03 C 151.33 65.62 154.06 63.54 156.13 60.87 C 149.58 63.86 144.32 69.09 138.19 72.85 C 137.62 72.59 136.48 72.06 135.91 71.80 C 142.30 68.06 147.51 62.58 154.02 59.08 C 156.81 59.20 158.96 57.61 161.08 56.06 C 164.02 58.79 166.95 56.52 168.74 53.54 Z"
     id="path34"
     inkscape:export-filename="/home/klaus/Bilder/dvb/dvb-settings64.png"
     inkscape:export-xdpi="23.900415"
     inkscape:export-ydpi="23.900415" />
  <path
     fill="#3e4344"
     d=" M 156.41 55.77 C 156.24 54.18 158.48 52.62 160.00 53.00 C 159.80 54.44 157.97 56.31 156.41 55.77 Z"
     id="path38"
     inkscape:export-filename="/home/klaus/Bilder/dvb/dvb-settings64.png"
     inkscape:export-xdpi="23.900415"
     inkscape:export-ydpi="23.900415" />
  <path
     fill="#cd4136"
     d="m 14.71,56.19 c 0.32,-0.61 3.35,-3.63 3.66,-4.24 43.78,26.03 -0.18,0.44 43.76,25.85 14.35,9.44 0.07,0.1 13.84,8.85 -1.14,1.73 -2.77,3.92 -3.77,5.72 -1.87,0.39 -3.64,-0.4 -5.17,-1.39 C 50.15,79.38 33.02,68.1 15.88,56.91 15.59,56.73 15,56.37 14.71,56.19 z"
     id="path40"
     sodipodi:nodetypes="cccccccc"
     inkscape:export-filename="/home/klaus/Bilder/dvb/dvb-settings64.png"
     inkscape:export-xdpi="23.900415"
     inkscape:export-ydpi="23.900415" />
  <path
     fill="#b05349"
     d="m 15,55.84 c 0.18,-0.16 -0.47,0.51 -0.29,0.35 0.29,0.18 0.88,0.54 1.17,0.72 -0.34,1.27 -0.75,2.55 -0.82,3.88 7.79,8.93 20.29,17.52 32.11,22.19 7.17,4.6 15.29,7.72 22.09,12.88 C 69.17,96.43 69,97.58 68.92,98.15 63.21,96.9 57.95,94.19 53.33,90.64 43.17,82.91 30.84,78.36 21.57,69.41 c -2.21,-1.31 -4.76,0.75 -6.88,1.5 l 0.681371,2.442742 C 15.321371,72.862742 14.09,69.6 14.04,69.1 14.01,65.01 15,59.93 15,55.84 z"
     id="path44"
     sodipodi:nodetypes="ccccccccccccc"
     inkscape:export-filename="/home/klaus/Bilder/dvb/dvb-settings64.png"
     inkscape:export-xdpi="23.900415"
     inkscape:export-ydpi="23.900415" />
  <path
     fill="#e8c1c4"
     d=" M 15.88 56.91 C 33.02 68.10 50.15 79.38 67.03 90.98 C 68.56 91.97 70.33 92.76 72.20 92.37 C 72.11 92.65 71.94 93.21 71.85 93.48 C 71.73 93.85 71.48 94.57 71.36 94.93 L 71.05 95.86 C 70.61 95.86 69.71 95.86 69.26 95.86 C 62.46 90.70 54.34 87.58 47.17 82.98 C 36.88 75.03 25.52 68.54 15.06 60.79 C 15.13 59.46 15.54 58.18 15.88 56.91 Z"
     id="path48"
     inkscape:export-filename="/home/klaus/Bilder/dvb/dvb-settings64.png"
     inkscape:export-xdpi="23.900415"
     inkscape:export-ydpi="23.900415" />
  <path
     fill="#161b18"
     d="m 131.86,71.4 c 7.37,-5.32 15.1,-10.16 23.01,-14.64 -0.21,0.58 -0.64,1.74 -0.85,2.32 -6.51,3.5 -11.72,8.98 -18.11,12.72 -13.03,9.73 -29.06,15.38 -41.72,25.2 0.32,1.23 1.92,2.59 0.56,3.7 -3.66,4.22 -1.85,10.04 -1.51,15.04 0.5,11.98 4.46,23.91 2.44,35.96 -0.41,1.44 -2.33,4.96 -3.34,1.99 -6.38,-15.08 -6.16,-32 -9.85,-47.81 0.1,-0.96 0.19,-1.93 0.28,-2.89 1.05,-4.55 -5.16,-5.48 -7.91,-7.99 -0.98,-0.56 -1.98,-1.07 -3.01,-1.52 0.09,-0.27 0.26,-0.83 0.35,-1.11 1,-1.8 2.03,-3.59 3.17,-5.32 0.45,-0.19 -0.26,-0.19 0.19,-0.39 7.092001,-8.993427 69.25012,-48.800771 81.23463,-52.341328 4.99,0.95 9.49537,3.541328 12.65537,10.801328 -3.79,2.23 -56.91,34.45 -60.58,36.88 -5.88,3.64 -12.38,6.22 -18.18,9.97 0.73,1.02 1.49,2.71 2.98,1.65 9.65,-5.22 19.35,-10.44 28.61,-16.34 3.43,-1.54 6.56,-3.66 9.58,-5.88 z"
     id="path50"
     sodipodi:nodetypes="ccccccccccccccccccccccc"
     inkscape:export-filename="/home/klaus/Bilder/dvb/dvb-settings64.png"
     inkscape:export-xdpi="23.900415"
     inkscape:export-ydpi="23.900415" />
  <path
     fill="#677072"
     d="m 172.93,60.12 c -0.49,-4.17 0.73,-5.59 3.53,2.48 2.95,0.52 1.85,7.28 3.18,9.79 0.07,9.05 3.48,15.77 1.46,24.75 -2.34,-1.38 -4.59,-2.94 -7.05,-4.11 -1.85,3.44 -4.58,6.98 -3.46,11.1 -0.86,11.56 -13.96,19.65 -9.51,31.94 -0.63,0.69 -1.27,1.38 -1.92,2.04 -1.71,1.2 -3.35,2.49 -5,3.76 0.08,-2.84 -2.5,-4.23 -4.19,-6.06 2.05,-11.67 14.14,-20.06 12.76,-32.69 -0.59,-8.64 2.65,-17.13 0.78,-25.76 -1.22,-5.25 -0.1,-11.92 -5.86,-14.6 12.2,-6.08 9.75,-7.61 14.59,-2.17 4.75,-5.24 2.96,5 0.69,-0.47 z"
     id="path52"
     sodipodi:nodetypes="ccccccccccccccc"
     inkscape:export-filename="/home/klaus/Bilder/dvb/dvb-settings64.png"
     inkscape:export-xdpi="23.900415"
     inkscape:export-ydpi="23.900415" />
  <path
     fill="#d99088"
     d=" M 15.06 60.79 C 25.52 68.54 36.88 75.03 47.17 82.98 C 35.35 78.31 22.85 69.72 15.06 60.79 Z"
     id="path54"
     inkscape:export-filename="/home/klaus/Bilder/dvb/dvb-settings64.png"
     inkscape:export-xdpi="23.900415"
     inkscape:export-ydpi="23.900415" />
  <path
     fill="#5d676a"
     d=" M 138.19 72.85 C 144.32 69.09 149.58 63.86 156.13 60.87 C 154.06 63.54 151.33 65.62 148.98 68.03 C 151.92 66.37 154.64 64.31 157.65 62.76 C 163.41 65.44 162.29 72.11 163.51 77.36 C 165.38 85.99 162.14 94.48 162.73 103.12 C 164.11 115.75 152.02 124.14 149.97 135.81 C 151.66 137.64 154.24 139.03 154.16 141.87 C 152.26 143.39 150.40 144.96 148.40 146.35 C 151.12 140.59 144.84 142.18 140.86 141.85 C 144.87 133.37 149.83 124.96 150.39 115.37 C 152.44 112.91 157.42 110.01 154.59 106.42 C 150.37 100.66 156.59 94.97 156.01 89.00 C 156.50 84.17 153.33 80.35 151.53 76.19 C 145.54 74.42 142.55 81.93 136.63 80.71 C 130.05 84.63 122.05 84.68 115.74 89.18 C 114.49 89.79 113.25 90.40 112.02 91.03 C 109.69 92.15 107.37 93.29 105.11 94.54 C 103.25 94.93 99.68 98.55 99.57 94.86 C 112.78 88.12 126.32 81.87 138.19 72.85 Z"
     id="path56"
     inkscape:export-filename="/home/klaus/Bilder/dvb/dvb-settings64.png"
     inkscape:export-xdpi="23.900415"
     inkscape:export-ydpi="23.900415" />
  <path
     fill="#9c4238"
     d="m 14.29,66.51 c 4.32,0.85 2.07,-1.21 4.28,0.1 11.87,7.95 24.6,16.3 34.76,24.03 4.62,3.55 9.88,6.26 15.59,7.51 1.18,19.52 3.09,39.44 10.16,57.8 0.75,1.66 1.43,3.35 2.04,5.06 C 61.78,148.82 43.45,134.86 26.3,119.73 L 14.52,72.14 c 0.04,-1.66 12.25,49.28 11.61,47.74 -0.14,-1.69 -11,-47.57 -11.55,-49.18 -0.28,-1.5 12.16,50.9 11.88,49.4 -0.15,-2 -13.7,-43.6 -12.17,-53.59 z"
     id="path60"
     sodipodi:nodetypes="cccccccccccc"
     inkscape:export-filename="/home/klaus/Bilder/dvb/dvb-settings64.png"
     inkscape:export-xdpi="23.900415"
     inkscape:export-ydpi="23.900415" />
  <path
     fill="#858b8e"
     d=" M 120.25 75.32 C 124.16 73.36 127.83 70.95 131.64 68.79 C 131.70 69.66 131.77 70.53 131.86 71.40 C 128.84 73.62 125.71 75.74 122.28 77.28 C 117.72 78.59 113.59 81.20 108.87 82.00 C 112.54 79.57 116.46 77.55 120.25 75.32 Z"
     id="path62"
     inkscape:export-filename="/home/klaus/Bilder/dvb/dvb-settings64.png"
     inkscape:export-xdpi="23.900415"
     inkscape:export-ydpi="23.900415" />
  <path
     fill="#bfc6ca"
     d=" M 180.84 69.99 C 184.36 78.40 182.64 91.00 182.94 101.00 C 183.74 117.63 170.36 130.01 158.90 139.99 C 158.97 139.52 159.10 138.58 159.16 138.11 C 159.81 137.45 160.45 136.76 161.08 136.07 C 163.68 133.09 166.45 130.25 169.05 127.26 C 175.25 120.16 180.74 111.67 180.97 101.91 C 181.05 100.32 181.06 98.73 181.10 97.14 C 183.12 88.16 180.91 79.04 180.84 69.99 Z"
     id="path64"
     inkscape:export-filename="/home/klaus/Bilder/dvb/dvb-settings64.png"
     inkscape:export-xdpi="23.900415"
     inkscape:export-ydpi="23.900415" />
  <path
     fill="#9aa7b6"
     d=" M 94.19 97.00 C 106.85 87.18 122.88 81.53 135.91 71.80 C 136.48 72.06 137.62 72.59 138.19 72.85 C 126.32 81.87 112.78 88.12 99.57 94.86 C 97.79 95.62 96.00 96.34 94.19 97.00 Z"
     id="path68"
     inkscape:export-filename="/home/klaus/Bilder/dvb/dvb-settings64.png"
     inkscape:export-xdpi="23.900415"
     inkscape:export-ydpi="23.900415" />
  <path
     d="M 202.03125 92.9375 C 201.85423 92.968971 201.6774 93.003444 201.5 93.03125 C 201.17009 93.213681 200.85127 93.394801 200.53125 93.59375 C 200.3576 93.885539 200.0404 94.060796 199.8125 94.3125 C 199.66585 94.47446 199.65703 94.486188 199.59375 94.5625 C 200.18096 94.288612 200.80752 94.051844 201.40625 93.78125 C 202.284 93.384559 202.16936 93.631574 202.28125 93.125 C 202.26215 93.09966 202.20255 93.0898 202.21875 93.0625 C 202.23299 93.038428 202.23622 93.02285 202.25 93 C 202.18519 92.975424 202.1025 92.954108 202.03125 92.9375 z M 199.46875 94.75 C 199.47418 94.745615 199.40171 94.785061 199.40625 94.78125 C 199.38027 94.826993 199.43127 94.780286 199.46875 94.75 z M 194.625 95.125 C 192.47391 95.9486 190.53037 96.514647 189.6875 95.65625 C 189.38257 95.740881 189.0446 95.789706 188.75 95.90625 C 188.6999 95.92606 188.88774 95.978921 188.875 96.03125 C 188.8482 96.141313 188.7252 96.191376 188.65625 96.28125 C 188.07247 96.737936 187.57061 97.310792 187 97.78125 C 186.43996 98.242991 185.83547 98.626188 185.28125 99.09375 C 185.00962 99.2763 184.40627 99.642267 184.15625 99.90625 C 183.9101 100.16615 183.76714 100.54326 183.53125 100.8125 C 182.88522 101.54985 182.8119 101.57645 182.09375 102.09375 L 181.4375 102.3125 C 181.24975 102.45282 181.06071 102.60586 180.875 102.75 C 180.881 102.8118 180.78575 102.85545 180.75 102.90625 C 180.32762 103.60346 179.55055 103.91858 178.96875 104.4375 C 178.91305 104.4872 178.9124 104.59174 178.875 104.65625 C 178.8027 104.78066 178.71089 104.88456 178.625 105 C 178.44438 105.24274 178.24987 105.48118 178.0625 105.71875 C 177.36195 107.27283 176.27698 108.6011 175.09375 109.8125 C 172.68025 110.89953 169.88986 111.94086 168.34375 114.25 C 168.31375 114.2948 168.35795 114.35429 168.34375 114.40625 C 168.31325 114.51763 168.26262 114.6119 168.21875 114.71875 C 167.73523 115.6163 167.11563 116.14897 166.125 116.46875 C 165.74727 116.59069 165.32419 116.62919 164.9375 116.71875 C 163.11329 117.14122 163.25779 117.14145 161.40625 117.8125 C 161.00997 118.05005 160.56862 118.22949 160.21875 118.53125 C 159.82605 118.86995 159.86898 119.56957 159.65625 120 C 159.10064 121.12421 159.0942 120.9679 158.1875 121.875 C 157.34998 122.40174 156.72436 123.15981 156 123.8125 C 155.45415 124.30433 155.03763 124.60699 154.46875 125.03125 C 154.37022 125.3219 154.272 125.62334 154.1875 125.90625 C 154.1785 125.93745 154.22515 125.968 154.21875 126 C 154.12465 126.47194 153.98387 126.9375 153.875 127.40625 C 153.69523 127.93547 153.44466 128.42025 153.21875 128.9375 C 153.10664 129.52158 152.98528 130.10243 152.875 130.6875 C 152.86859 130.79043 152.84823 130.89473 152.8125 131 C 152.81052 131.0101 152.81449 131.02115 152.8125 131.03125 C 152.80107 131.06296 152.79476 131.0933 152.78125 131.125 C 152.70856 131.48939 152.65213 131.85724 152.5625 132.21875 C 152.24857 133.39859 151.88649 134.56467 151.59375 135.75 C 152.88234 135.68066 153.95551 135.73486 155.40625 135.40625 C 156.89714 135.06825 159.66767 133.77714 160.96875 133.21875 C 164.09245 131.99346 167.51753 131.46154 170.53125 129.9375 C 171.08531 129.65732 171.57498 129.24737 172.09375 128.90625 C 172.32234 128.75594 172.55616 128.62417 172.78125 128.46875 C 172.85485 128.16556 172.94769 127.86309 173.03125 127.5625 C 173.34977 126.41657 173.01674 127.06263 173.875 125.53125 C 174.21972 125.34156 174.60493 125.179 174.9375 124.96875 C 175.07066 124.88455 174.65126 125.1122 174.5 125.15625 C 174.4787 125.16225 174.5197 125.08275 174.5 125.09375 C 174.4685 125.1118 174.40855 125.17679 174.375 125.21875 C 174.49649 124.75472 174.87959 124.26652 175.125 123.90625 C 175.34868 123.68081 175.9128 123.0693 176.21875 122.875 C 176.50632 122.69238 176.83769 122.58927 177.125 122.40625 C 177.1892 122.36535 176.82763 122.4971 176.875 122.4375 C 177.03856 122.23182 177.30208 122.11039 177.5 121.9375 C 177.71828 121.74684 177.90941 121.53745 178.125 121.34375 C 179.17081 120.44679 179.99255 119.36127 180.9375 118.375 C 181.43178 117.75509 182.24937 117.39406 182.75 116.78125 C 182.7668 116.76065 182.64735 116.775 182.65625 116.75 C 182.70665 116.60791 182.82461 116.47048 182.90625 116.34375 C 183.03522 116.14354 183.17605 115.94518 183.3125 115.75 C 183.48439 115.56289 183.66504 115.42567 183.8125 115.21875 C 183.8655 115.14435 183.59823 115.43499 183.59375 115.34375 C 183.58575 115.18613 184.17889 113.82904 184.21875 113.71875 C 184.59198 113.04973 184.63367 113.05101 184.96875 112.40625 C 184.97775 112.38975 184.9416 112.3933 184.9375 112.375 C 185.04996 112.1678 185.14873 111.94498 185.28125 111.75 C 185.44155 111.51416 185.63334 111.28435 185.8125 111.0625 C 185.7662 111.0756 185.67768 111.1721 185.6875 111.125 C 185.87133 110.24332 186.88377 109.03828 187.5625 108.5 C 187.75381 108.34827 187.97957 108.25301 188.1875 108.125 C 188.1448 108.12 188.04976 108.13485 188.0625 108.09375 C 188.14451 107.82985 188.66999 107.39457 188.875 107.21875 C 188.69265 107.63099 188.02311 108.55387 188.4375 108.4375 C 189.49603 108.14026 190.25239 107.1885 191.15625 106.5625 C 190.92483 106.5039 190.67747 106.49087 190.46875 106.375 C 190.41325 106.3442 190.54116 106.28563 190.59375 106.25 C 190.79023 106.11693 190.99128 106.00846 191.1875 105.875 C 191.74114 105.49843 192.30315 105.05942 192.8125 104.625 C 193.11572 104.35707 193.43716 103.96516 193.5625 103.5625 C 193.6222 103.37078 193.37001 103.71882 193.375 103.625 C 193.3921 103.30248 193.46121 102.97688 193.5 102.65625 L 194.09375 101.6875 C 194.3199 100.80774 194.22966 100.95262 194.5625 100.40625 C 194.5047 100.50759 194.33696 100.7978 194.375 100.6875 C 194.50859 100.30007 194.80337 99.631048 195.0625 99.09375 C 195.05939 99.103564 195.06012 99.067653 195.0625 99.0625 C 195.0763 99.034062 195.0801 98.996194 195.09375 98.96875 C 195.20907 98.555868 195.27668 98.14454 195.5 97.78125 C 195.73606 97.397229 196.74149 96.574158 197.40625 96.03125 C 197.31314 96.046384 197.24039 96.081436 197.125 96.09375 C 196.44556 96.166258 195.19785 95.81082 194.625 95.125 z M 182.25 96.4375 C 178.64594 98.507856 175.43226 101.83349 170.78125 100.875 C 170.62878 100.96583 170.46615 101.03742 170.3125 101.125 C 169.87148 101.54933 169.43867 101.96645 168.90625 102.28125 C 168.45543 102.53365 167.98752 102.78886 167.53125 103.03125 C 166.72048 103.46197 165.8877 103.82025 165.09375 104.28125 C 164.66223 104.53181 164.60642 104.58042 164.625 104.59375 C 164.64502 104.6022 164.60636 104.66778 163.9375 105 C 163.55816 105.18842 163.16627 105.35473 162.78125 105.53125 C 161.52861 106.1554 160.67291 106.63967 159.375 107.125 C 158.47809 107.46037 158.64068 107.2287 157.6875 107.5 C 156.85585 107.7367 156.03661 108.12183 155.25 108.46875 C 154.77484 108.59165 154.32681 108.75689 153.84375 108.84375 C 153.78275 108.85475 153.83385 108.62358 153.78125 108.65625 C 153.04853 109.11095 152.50049 109.70118 151.5625 109.65625 C 151.51464 109.66293 151.50393 109.68207 151.46875 109.6875 C 151.42717 109.76826 151.38133 109.81803 151.3125 109.875 C 151.2691 109.9109 151.24545 109.79957 151.21875 109.75 L 150.8125 111.03125 C 150.40691 111.57934 150.43107 111.63854 149.84375 112.09375 C 148.90993 112.81752 147.67555 113.04091 147 114.125 C 146.9357 114.1761 145.99443 114.91819 145.9375 114.96875 C 145.66997 115.20631 145.43389 115.49311 145.15625 115.71875 C 145.11145 115.75515 145.04513 115.7144 145 115.75 C 144.88788 115.8393 144.46179 116.46438 144.4375 116.5 C 143.58355 117.29549 143.05701 117.86004 141.3125 118.125 C 141.45223 117.9746 141.1271 118.13375 141.0625 118.15625 C 140.81883 118.24145 140.56595 118.35728 140.3125 118.40625 C 140.2311 118.42195 140.43813 118.30523 140.5 118.25 L 140.96875 117.53125 C 140.25224 117.99635 139.56283 118.49796 138.8125 118.90625 C 138.68722 118.97445 137.42729 118.63488 137.1875 118.71875 C 136.65927 118.96095 136.11238 119.49803 135.625 119.6875 C 135.33278 119.8011 135.002 119.81214 134.6875 119.84375 C 134.26904 120.07607 132.54524 121.03667 132.53125 120.5625 C 132.2053 120.66929 131.61683 120.85108 131.375 120.90625 C 131.29942 120.987 131.19484 121.03627 131.09375 121.03125 C 131.06091 121.0295 131.05053 121.01995 131.0625 121 C 130.87769 121.13561 130.88682 121.14161 130.78125 121.21875 C 130.74276 121.26007 130.6829 121.34428 130.59375 121.40625 C 130.8354 121.74235 131.12758 122.03102 131.4375 122.3125 C 131.91509 122.85852 132.50119 123.30855 132.625 124.03125 C 132.64375 124.05056 132.67245 124.10964 132.6875 124.125 C 132.98555 124.42111 133.03494 124.48456 133.34375 124.90625 C 133.40575 124.99095 133.78749 125.55848 133.84375 125.625 C 134.08086 125.90534 134.35548 126.15814 134.59375 126.4375 C 134.78293 126.6593 134.94732 126.89388 135.125 127.125 C 135.62952 127.94579 134.89807 126.82977 135.96875 128.28125 C 136.23324 128.63981 136.49253 129.00561 136.6875 129.40625 C 136.7366 129.50724 136.6931 129.65317 136.75 129.75 C 136.8302 129.88647 136.95471 129.97781 137.0625 130.09375 C 137.37484 130.52703 137.71555 130.92292 138 131.375 C 138.052 131.4577 138.0436 131.59168 138.0625 131.6875 C 138.09618 131.85744 138.20183 132.01804 138.21875 132.1875 C 138.2724 132.26743 138.26521 132.28385 138.34375 132.40625 C 140.44422 134.56034 142.86525 136.36135 144.78125 138.6875 C 144.82662 137.99665 145.35689 137.25439 146.375 136.78125 C 146.61165 135.93318 146.85111 135.09366 147.09375 134.25 C 147.21459 133.82003 147.31015 133.38627 147.46875 132.96875 C 147.53295 132.79984 147.68153 132.65069 147.78125 132.5 C 147.80395 132.5121 147.82465 132.5797 147.84375 132.5625 C 148.13004 132.30457 148.05853 131.81024 148.15625 131.4375 C 148.17065 131.3825 148.19375 131.33229 148.21875 131.28125 C 148.33754 130.99659 148.6012 130.27701 148.9375 129.90625 C 148.96425 129.61545 149.0118 129.34161 149.03125 129.1875 C 149.15383 128.77645 149.28384 128.36764 149.4375 127.96875 C 149.55448 127.21916 149.70603 126.47723 150.03125 125.78125 C 150.3199 125.3905 150.14044 125.7141 150.34375 124.9375 C 150.45981 124.49414 150.57753 124.11092 150.71875 123.75 C 150.7156 123.02634 150.68907 122.83508 151.3125 121.90625 C 151.31457 121.90316 151.39262 121.85613 151.40625 121.84375 C 151.4515 121.63526 151.49557 121.42102 151.5625 121.21875 C 152.15917 119.41574 153.508 117.98362 154.5 116.40625 C 155.24249 115.59907 155.90084 114.69842 156.65625 113.90625 C 156.74495 113.81325 156.89311 113.79138 156.96875 113.6875 C 157.02935 113.6043 158.23155 111.53211 158.25 111.5 C 160.16772 108.16161 164.02202 110.16496 161.71875 113.25 C 161.61233 113.39254 161.52758 113.53406 161.4375 113.6875 C 162.21967 113.40511 162.78103 113.20943 164.25 112.875 C 164.43032 112.83397 164.63217 112.74681 164.8125 112.75 C 164.96407 112.39904 165.15151 112.05728 165.375 111.75 C 166.75228 109.85641 168.79546 108.3956 170.90625 107.4375 C 171.34513 107.23829 171.84587 107.21443 172.3125 107.09375 C 172.79196 106.62078 173.16819 106.11671 173.59375 105.59375 C 173.70483 105.45725 173.83982 105.33389 173.9375 105.1875 C 174.34089 104.58293 174.57438 103.85432 175.03125 103.28125 C 175.605 102.57077 176.06428 101.84164 176.75 101.21875 C 176.90054 101.082 177.08222 100.98995 177.25 100.875 C 177.3156 100.8499 177.41615 100.859 177.46875 100.8125 C 177.59098 100.70446 177.67676 100.56278 177.78125 100.4375 C 177.92764 100.26826 178.61671 99.402352 178.84375 99.40625 C 178.89819 99.407175 178.88408 99.472161 178.84375 99.53125 C 179.24578 99.120895 179.77565 98.609891 180.15625 98.6875 C 180.18358 98.693075 180.16931 98.704177 180.15625 98.71875 C 180.22248 98.684438 180.29621 98.681544 180.34375 98.625 C 180.53992 98.391665 180.68473 98.113166 180.875 97.875 C 181.29688 97.346924 181.72126 96.832135 182.25 96.4375 z M 214.15625 96.46875 C 207.63374 96.951709 195.63438 117.77969 195 111.25 C 199.02265 104.72124 201.2963 100.41016 202.34375 97.59375 C 202.12054 97.683762 201.85289 97.794053 201.71875 97.84375 C 201.61689 97.88149 201.50275 97.88762 201.40625 97.9375 C 201.04863 98.122342 200.7687 98.416331 200.40625 98.59375 C 200.16468 98.804516 199.1017 99.766339 198.84375 99.9375 C 198.70419 100.37293 198.5533 100.7718 198.5 100.875 C 198.49588 100.88754 198.47298 100.89363 198.46875 100.90625 C 198.46702 100.90866 198.46979 100.93704 198.46875 100.9375 C 198.35602 101.26885 198.21883 101.595 198.1875 101.65625 C 198.1734 101.68385 198.16785 101.53388 198.15625 101.5625 C 198.08985 101.72067 198.05426 101.89965 198 102.0625 C 197.98285 102.6165 197.60543 103.35552 197.4375 103.65625 C 197.3977 103.7275 197.33682 103.87467 197.28125 103.96875 C 197.28022 104.07463 197.29543 104.17894 197.28125 104.28125 C 197.13605 105.32851 196.60717 106.23396 195.9375 107.03125 C 195.74882 107.25589 195.49334 107.4223 195.28125 107.625 C 194.42024 108.33282 192.39965 109.95654 191.375 110.15625 C 191.36471 110.15826 191.35406 110.15438 191.34375 110.15625 C 191.02589 110.53868 190.92775 110.67492 190.96875 110.65625 C 191.03128 110.60347 191.05728 110.60498 190.125 111.5 C 190.0765 111.5197 190.01765 111.5812 189.96875 111.5625 C 189.9511 111.5557 189.96005 111.49894 189.96875 111.46875 C 189.42189 112.11949 189.16338 112.91063 188.75 113.65625 C 188.44684 113.82048 188.40397 114.16123 188.25 114.46875 C 188.12154 114.7253 187.98732 114.97034 187.84375 115.21875 C 187.83575 115.23325 187.8196 115.2027 187.8125 115.1875 C 187.7467 115.34304 187.70733 115.50881 187.625 115.65625 C 187.6127 115.67825 187.60185 115.5386 187.59375 115.5625 C 187.31146 116.39626 187.14626 117.42684 186.4375 118.03125 C 186.01693 118.56372 185.76348 119.15771 185.3125 119.6875 C 184.84636 120.2351 184.17135 120.59472 183.6875 121.125 C 182.89194 121.8429 183.65853 121.08202 182.625 122.34375 C 182.05571 123.03897 181.34174 123.60758 180.71875 124.25 C 179.77256 125.0965 178.90313 125.78139 178.21875 126.25 C 178.00578 126.3045 177.60058 127.45731 177.59375 127.46875 C 177.40092 127.7921 177.13868 128.03242 176.84375 128.25 C 176.80327 128.39993 176.79066 128.56887 176.75 128.71875 C 176.7065 128.83759 176.62459 128.93976 176.59375 129.0625 C 176.25881 130.39408 176.75322 129.2775 175.9375 130.8125 C 175.69008 131.05047 175.45666 131.28692 175.1875 131.5 C 174.85788 131.76095 174.51193 131.99462 174.15625 132.21875 C 173.44255 132.66848 172.75487 133.15469 172 133.53125 C 168.99718 135.02915 165.62687 135.65445 162.5 136.8125 C 160.25699 137.76403 158.21025 138.75367 155.8125 139.28125 C 153.81787 139.72014 151.76669 139.56577 149.75 139.90625 C 149.75219 140.01587 149.74671 140.17511 149.75 140.21875 C 149.77962 140.29444 149.83722 140.4126 149.875 140.46875 C 149.8877 140.48765 149.9166 140.4911 149.9375 140.5 C 149.99901 140.60831 150.06086 140.70554 150.125 140.8125 C 150.4835 141.22224 150.87473 141.62921 151.40625 141.8125 C 151.5127 141.8492 151.64291 141.7777 151.75 141.8125 C 151.89554 141.8598 153.03716 142.35661 153.375 142.5 C 153.80313 142.65971 154.17721 142.91024 154.59375 143.09375 C 155.26427 143.38915 155.94407 143.38234 156.4375 144.09375 C 156.76978 144.57281 156.85006 145.17582 157.0625 145.71875 C 156.992 146.09986 157.01973 146.51546 156.875 146.875 C 156.39519 148.06686 154.17974 149.78799 153.09375 150.5625 L 152.46875 150.875 C 150.071 152.08522 151.09559 148.32235 151.34375 147.03125 C 151.2038 147.14014 151.05559 147.21465 150.90625 147.3125 C 151.43745 146.27662 151.45131 146.47165 151.34375 147.03125 C 151.64733 146.79506 151.93273 146.54003 152.21875 146.28125 C 152.09534 146.22071 151.96293 146.1644 151.84375 146.09375 C 151.46944 145.93476 151.13171 145.73402 150.75 145.59375 C 150.31663 145.43449 149.85899 145.34473 149.4375 145.15625 C 148.86514 144.90032 147.90862 144.26156 147.5625 143.71875 C 147.26865 143.38988 146.95679 143.05898 146.6875 142.6875 C 145.94555 143.33259 145.12154 143.83829 144.15625 143.53125 C 142.69815 143.06746 142.27261 142.01778 141.625 140.90625 C 139.69697 138.8767 137.52123 137.09567 135.5625 135.09375 C 135.16698 134.66653 134.78085 134.35773 134.5625 133.78125 C 134.45455 133.49624 134.42447 133.17717 134.375 132.875 C 134.23734 132.75407 134.11045 132.64518 134 132.5 C 133.48563 131.82388 133.16373 130.99665 132.65625 130.3125 C 132.56435 130.18857 132.44891 130.08167 132.34375 129.96875 L 131.875 129.28125 C 131.75513 129.13048 131.62762 128.98802 131.5 128.84375 C 131.33568 128.658 131.15929 128.47132 131 128.28125 C 130.61913 127.82676 130.34672 127.18865 129.875 126.8125 C 128.36887 124.58181 129.61563 126.49093 129.59375 126.46875 C 129.02684 125.89422 129.05296 125.78013 128.96875 125.34375 C 127.98132 124.50252 127.28344 123.39884 126.59375 122.3125 C 126.48187 122.13627 126.38961 121.95967 126.28125 121.78125 C 111.3824 142.09094 118.52573 186.1568 123.15625 199.90625 C 122.73018 200.14681 122.32377 200.61733 121.9375 201.46875 C 121.24672 203.69348 122.52703 204.29448 124.125 204.5625 C 124.24294 205.16431 125.17455 205.03793 126.3125 204.84375 C 127.86581 205.07897 128.9822 205.57708 127.9375 207.65625 C 127.80988 208.26381 128.61369 208.26618 130.0625 207.875 C 129.50567 207.08275 128.84814 205.86507 128.125 204.59375 C 129.79961 204.45163 131.44031 204.74383 131.71875 207.0625 C 131.70969 207.17621 131.69873 207.27371 131.6875 207.375 C 142.1459 203.74018 171.03744 188.73227 174.34375 192.28125 C 176.50661 192.17708 177.96538 189.80747 178.6875 187.71875 C 180.98918 186.17028 183.25714 184.57131 185.5 182.9375 C 188.9 175.7375 215.69375 136.725 210.71875 136.3125 C 215.73125 125.7125 187.3 156.20625 188 144.21875 C 190.5625 141.14375 220.1 102.14375 216.5625 97.65625 C 215.90312 96.75625 215.08804 96.399756 214.15625 96.46875 z M 131.6875 207.375 C 131.07575 207.58761 130.5392 207.74629 130.0625 207.875 C 130.86387 209.01518 131.47899 209.25638 131.6875 207.375 z M 197.25 103.25 C 197.24695 103.24863 197.23575 103.35517 197.25 103.5 C 197.25457 103.48827 197.2778 103.4803 197.28125 103.46875 C 197.24503 103.31399 197.25248 103.25112 197.25 103.25 z M 164.75 112.9375 C 164.63941 113.02889 164.55674 113.16225 164.625 113.25 C 164.66779 113.14799 164.7068 113.04051 164.75 112.9375 z M 132.90625 115.40625 C 132.79249 115.48066 132.67476 115.54877 132.5625 115.625 C 132.61823 116.28196 132.69328 116.2415 132.90625 115.40625 z M 131.25 116.875 C 131.0732 116.88142 130.89099 116.91553 130.875 116.90625 C 130.79376 116.97264 130.70537 117.02633 130.625 117.09375 C 130.71873 117.07871 130.81454 117.05459 130.90625 117.03125 C 130.92655 117.02625 130.8561 117.0091 130.875 117 C 131.00125 116.93938 131.11634 116.91736 131.25 116.875 z M 135.15625 119.5625 C 135.08195 119.6119 135.01455 119.67387 134.9375 119.71875 C 134.93553 119.7199 134.82599 119.77365 134.8125 119.78125 C 135.17288 119.70621 135.56241 119.60614 135.15625 119.5625 z M 132.09375 123.46875 C 132.23404 123.63901 132.32085 123.71907 132.4375 123.84375 C 132.42546 123.81719 132.418 123.76877 132.40625 123.75 C 132.33205 123.6315 132.00484 123.36085 132.09375 123.46875 z M 128.78125 124.59375 C 128.76165 124.53275 128.7259 124.72187 128.75 124.78125 C 128.7924 124.88576 128.8497 124.99598 128.90625 125.09375 C 128.87362 124.95189 128.85053 124.80993 128.78125 124.59375 z M 173.125 128.125 C 173.07639 128.1873 173.01499 128.24808 172.96875 128.3125 C 172.98737 128.29853 173.01283 128.29549 173.03125 128.28125 C 173.08095 128.24285 173.0944 128.17982 173.125 128.125 z M 121.78125 154.8125 C 121.95052 154.80649 122.21133 154.92659 122.59375 155.21875 C 124.07664 156.35163 123.6908 155.70555 124.1875 157.34375 C 124.2082 157.41205 124.12265 157.22152 124.09375 157.15625 C 123.11968 155.88932 124.07574 157.1924 124.625 158.34375 C 124.73295 158.57006 124.53706 158.95276 124.625 159.1875 C 124.626 160.64969 124.74055 162.1355 124.59375 163.59375 C 124.56835 163.75854 124.51031 164.19127 124.4375 164.40625 C 124.4194 164.45975 124.3667 164.50658 124.375 164.5625 C 124.4349 164.96233 124.59502 165.31912 124.65625 165.71875 C 124.68535 165.90886 124.6323 166.87598 124.625 167.03125 C 124.5751 167.47469 124.54505 167.63299 124.53125 167.625 C 124.68526 167.92873 124.84454 168.22829 125 168.53125 C 125.0141 169.19061 125.02125 169.8806 124.90625 170.53125 C 124.88795 170.50545 124.86265 170.41207 124.84375 170.4375 C 124.82075 170.4686 124.8626 170.52579 124.875 170.5625 C 124.9655 170.82962 125.07697 171.07309 125.15625 171.34375 C 125.18006 171.39415 125.1953 171.44948 125.21875 171.5 C 125.35976 171.80374 125.51377 172.10319 125.65625 172.40625 C 126.00349 173.52631 126.27442 174.23621 125.875 175.40625 C 125.83274 175.53 125.81599 175.78785 125.71875 175.78125 C 125.71782 175.81189 125.71964 175.84435 125.71875 175.875 C 126.22056 176.32337 126.75028 176.76502 127.15625 177.3125 C 127.3986 177.671 127.60717 178.03512 127.875 178.375 C 128.45923 179.1164 128.75273 179.38108 128.96875 179.59375 C 129.20826 178.84432 129.50311 178.12498 129.875 178 C 130.15511 177.57934 130.00829 177.86394 130.25 177.09375 C 130.2995 177.01845 130.25091 177.44071 130.3125 177.375 C 130.43323 177.24623 130.07631 176.12458 130.1875 176.03125 C 130.2143 175.198 130.19629 175.29941 130.34375 174.53125 C 130.39305 174.27448 130.43481 174.03445 130.5 173.78125 C 130.5324 173.65535 130.61195 173.53561 130.625 173.40625 C 130.6732 172.92832 130.5641 172.44702 130.625 171.96875 C 130.7213 170.47067 130.82785 168.9904 130.5 167.5 C 129.67286 163.7399 133.75213 163.03475 134.3125 166.84375 C 134.50026 168.11999 134.65708 169.42703 134.625 170.71875 C 134.6126 171.21648 134.51888 171.6921 134.5 172.1875 C 134.501 172.34305 134.498 172.5007 134.5 172.65625 C 134.5125 173.70909 134.56616 173.21681 134.3125 174.5625 C 134.218 175.06366 134.04842 175.55076 134.09375 176.0625 C 134.39344 177.37486 133.89954 178.61434 133.34375 179.78125 C 133.25565 180.14966 132.60943 180.48227 132.5625 180.9375 C 132.5595 180.9672 132.60015 180.9709 132.59375 181 C 132.34802 181.86362 132.45779 181.48637 132.3125 182.15625 C 132.3145 182.20425 132.3015 182.26575 132.3125 182.3125 C 132.3145 182.3215 132.33485 182.3127 132.34375 182.3125 C 132.24306 182.73316 132.15133 183.14695 132.03125 183.5625 C 131.99685 183.68143 131.95623 183.81281 131.875 183.90625 C 131.77605 184.02011 131.68701 184.09173 131.59375 184.1875 C 131.61281 184.13575 131.60023 184.08071 131.53125 184.0625 C 130.28364 183.73312 128.94284 183.97353 127.65625 183.875 C 127.54614 183.867 127.45102 183.83015 127.375 183.75 C 126.92272 183.27339 126.52067 182.71821 126.09375 182.21875 C 124.39515 180.23154 125.48217 181.65703 123.96875 179.5 C 123.41977 178.96622 122.36756 178.36648 122.09375 177.625 C 121.57606 176.22312 121.83607 176.42383 121.8125 175.625 C 121.79534 175.01402 121.79638 175.25595 122.125 174.25 C 122.10252 174.20601 122.08319 174.03157 121.9375 173.5625 C 121.58315 173.10095 121.48883 172.57182 121.34375 172.03125 C 121.36199 172.11797 121.36905 172.22455 121.34375 172.1875 C 121.16469 171.92496 121.07354 171.20604 121.03125 170.96875 C 121.0328 170.35851 121.08336 169.76454 121.09375 169.15625 C 120.93306 168.88554 120.77334 168.63293 120.75 168.5625 C 120.54128 167.93286 120.678 167.23205 120.75 166.59375 C 120.753 166.49785 120.7668 165.79664 120.75 165.71875 C 120.743 165.68405 120.66174 165.7221 120.65625 165.6875 C 120.59215 165.27778 120.5616 164.88345 120.5625 164.46875 C 120.56311 164.20558 120.6987 163.33329 120.75 163 C 120.814 161.73813 120.72085 160.45082 120.71875 159.1875 C 120.73918 159.18726 120.75094 159.1266 120.75 159.03125 C 120.62363 158.79019 120.50137 158.55356 120.375 158.3125 C 120.15574 155.9497 120.31345 157.95783 120.40625 158.09375 C 120.48562 158.20998 120.61333 158.28174 120.71875 158.375 C 120.7173 158.29914 120.7306 158.27375 120.75 158.3125 C 120.78068 158.37378 120.81238 158.43861 120.84375 158.5 C 121.02081 158.64108 121.2068 158.78861 121.375 158.9375 C 123.8974 161.17043 120.59633 154.85454 121.78125 154.8125 z M 124.25 167.09375 C 124.32387 167.22885 124.39842 167.363 124.46875 167.5 C 124.46036 167.44969 124.4629 167.38345 124.4375 167.34375 C 124.38085 167.25518 124.31769 167.17451 124.25 167.09375 z M 122.28125 173.78125 C 122.22902 173.93775 122.23777 173.94142 122.21875 174.03125 C 122.25428 173.96068 122.28698 173.88701 122.3125 173.8125 C 122.3165 173.8007 122.28525 173.76945 122.28125 173.78125 z M 131.46875 184.34375 C 131.33583 184.48338 131.14124 184.66226 131.0625 184.78125 C 130.5854 185.05107 130.9336 184.86689 131.46875 184.34375 z "
     transform="scale(0.8,0.8)"
     id="path70"
     inkscape:export-filename="/home/klaus/Bilder/dvb/dvb-settings64.png"
     inkscape:export-xdpi="23.900415"
     inkscape:export-ydpi="23.900415" />
  <path
     fill="#bdc1c1"
     d="m 108.87,82 c 23.20029,-15.389705 8.85,-3.41 13.41,-4.72 -9.26,5.9 -18.96,11.12 -28.61,16.34 -1.49,1.06 -2.25,-0.63 -2.98,-1.65 5.8,-3.75 12.3,-6.33 18.18,-9.97 z"
     id="path76"
     sodipodi:nodetypes="ccccc"
     inkscape:export-filename="/home/klaus/Bilder/dvb/dvb-settings64.png"
     inkscape:export-xdpi="23.900415"
     inkscape:export-ydpi="23.900415" />
  <path
     fill="#757c7e"
     d=" M 174.05 93.03 C 176.51 94.20 178.76 95.76 181.10 97.14 C 181.06 98.73 181.05 100.32 180.97 101.91 C 178.80 102.14 175.62 101.32 175.42 104.36 C 173.52 112.15 165.63 118.73 169.05 127.26 C 166.45 130.25 163.68 133.09 161.08 136.07 C 156.63 123.78 169.73 115.69 170.59 104.13 C 169.47 100.01 172.20 96.47 174.05 93.03 Z"
     id="path88"
     inkscape:export-filename="/home/klaus/Bilder/dvb/dvb-settings64.png"
     inkscape:export-xdpi="23.900415"
     inkscape:export-ydpi="23.900415" />
  <path
     fill="#434c4d"
     d=" M 71.36 94.93 C 71.48 94.57 71.73 93.85 71.85 93.48 C 72.88 93.93 73.88 94.44 74.86 95.00 C 69.66 97.10 80.11 100.98 82.77 102.99 C 82.68 103.95 82.59 104.92 82.49 105.88 C 76.90 111.82 67.99 101.31 71.36 94.93 Z"
     id="path90"
     inkscape:export-filename="/home/klaus/Bilder/dvb/dvb-settings64.png"
     inkscape:export-xdpi="23.900415"
     inkscape:export-ydpi="23.900415" />
  <path
     fill="#222a27"
     d=" M 71.36 94.93 C 67.99 101.31 76.90 111.82 82.49 105.88 C 86.18 121.69 85.96 138.61 92.34 153.69 C 93.35 156.66 95.27 153.14 95.68 151.70 C 97.70 139.65 93.74 127.72 93.24 115.74 C 96.45 126.87 97.11 138.57 98.75 150.00 C 97.65 154.84 96.03 159.92 98.34 164.67 C 100.00 167.65 95.66 168.47 94.04 170.17 C 89.23 168.18 83.87 165.60 81.12 161.01 C 80.51 159.30 79.83 157.61 79.08 155.95 C 74.56 136.25 70.56 116.18 71.05 95.86 L 71.36 94.93 Z"
     id="path92"
     inkscape:export-filename="/home/klaus/Bilder/dvb/dvb-settings64.png"
     inkscape:export-xdpi="23.900415"
     inkscape:export-ydpi="23.900415" />
  <path
     fill="#c6cfd8"
     d=" M 82.77 102.99 C 80.11 100.98 69.66 97.10 74.86 95.00 C 77.61 97.51 83.82 98.44 82.77 102.99 Z"
     id="path94"
     inkscape:export-filename="/home/klaus/Bilder/dvb/dvb-settings64.png"
     inkscape:export-xdpi="23.900415"
     inkscape:export-ydpi="23.900415" />
  <path
     fill="#374142"
     d=" M 94.19 97.00 C 96.00 96.34 97.79 95.62 99.57 94.86 C 99.68 98.55 103.25 94.93 105.11 94.54 C 106.32 101.09 99.49 106.43 97.02 112.07 C 97.75 119.15 103.14 124.44 104.87 131.11 C 104.62 140.90 101.98 150.39 100.01 159.91 C 104.54 170.22 115.91 156.32 123.50 161.09 C 114.98 166.02 105.90 170.12 95.97 170.93 C 95.49 170.74 94.52 170.36 94.04 170.17 C 95.66 168.47 100.00 167.65 98.34 164.67 C 96.03 159.92 97.65 154.84 98.75 150.00 C 97.11 138.57 96.45 126.87 93.24 115.74 C 92.90 110.74 91.09 104.92 94.75 100.70 C 96.11 99.59 94.51 98.23 94.19 97.00 Z"
     id="path96"
     inkscape:export-filename="/home/klaus/Bilder/dvb/dvb-settings64.png"
     inkscape:export-xdpi="23.900415"
     inkscape:export-ydpi="23.900415" />
  <path
     fill="#8f7d77"
     d=" M 69.26 95.86 C 69.71 95.86 70.61 95.86 71.05 95.86 C 70.56 116.18 74.56 136.25 79.08 155.95 C 72.01 137.59 70.10 117.67 68.92 98.15 C 69.00 97.58 69.17 96.43 69.26 95.86 Z"
     id="path98"
     inkscape:export-filename="/home/klaus/Bilder/dvb/dvb-settings64.png"
     inkscape:export-xdpi="23.900415"
     inkscape:export-ydpi="23.900415" />
  <path
     fill="#878d90"
     d=" M 175.42 104.36 C 175.62 101.32 178.80 102.14 180.97 101.91 C 180.74 111.67 175.25 120.16 169.05 127.26 C 165.63 118.73 173.52 112.15 175.42 104.36 Z"
     id="path100"
     inkscape:export-filename="/home/klaus/Bilder/dvb/dvb-settings64.png"
     inkscape:export-xdpi="23.900415"
     inkscape:export-ydpi="23.900415" />
  <path
     fill="#a1a6a8"
     d=" M 154.16 141.87 C 155.81 140.60 157.45 139.31 159.16 138.11 C 159.10 138.58 158.97 139.52 158.90 139.99 C 153.51 146.23 145.32 151.44 137.87 154.79 L 137.71 153.77 C 138.89 152.90 140.11 152.08 141.33 151.26 C 143.74 149.70 146.08 148.04 148.40 146.35 C 150.40 144.96 152.26 143.39 154.16 141.87 Z"
     id="path102"
     inkscape:export-filename="/home/klaus/Bilder/dvb/dvb-settings64.png"
     inkscape:export-xdpi="23.900415"
     inkscape:export-ydpi="23.900415" />
  <path
     fill="#838889"
     d=" M 135.25 154.90 C 136.07 154.52 136.89 154.14 137.71 153.77 L 137.87 154.79 C 128.94 162.28 116.03 167.28 104.34 171.37 C 102.50 170.97 96.49 173.59 95.97 170.93 C 105.90 170.12 114.98 166.02 123.50 161.09 C 127.59 159.38 131.42 157.12 135.25 154.90 Z"
     id="path104"
     inkscape:export-filename="/home/klaus/Bilder/dvb/dvb-settings64.png"
     inkscape:export-xdpi="23.900415"
     inkscape:export-ydpi="23.900415" />
  <g
     id="g3202"
     inkscape:export-filename="/home/klaus/Bilder/dvb/dvb-settings64.png"
     inkscape:export-xdpi="23.900415"
     inkscape:export-ydpi="23.900415">
    <path
       style="fill:#9c9e9c"
       d="M 90.622261,169.59767 C 74.54279,159.19238 60.04715,146.57617 44.314872,135.6728 37.668668,130.62234 31.173939,125.33396 25.301837,119.3878 18.185093,99.512313 11.95626,78.721104 12.784964,57.38205 16.379426,45.890697 28.638836,41.280659 37.131691,34.080306 55.081354,22.181794 75.309283,14.261084 95.74518,7.771887 c 15.66109,6.531731 31.26264,13.358732 47.00098,19.554087 10.58712,5.319304 19.99614,7.83292 29.96723,14.224015 7.34469,7.085842 7.85274,18.510208 9.20932,27.971156 1.09546,15.445193 3.60886,33.840565 -1.15894,48.851335 -3.88507,10.81819 -14.61702,16.62332 -22.604,24.11561 -17.21883,14.0346 -36.87114,26.81539 -59.317114,29.87679 -2.959841,-0.0116 -5.669743,-1.4172 -8.220395,-2.76721 z M 21.509915,62.521605 C 32.180171,72.749891 45.838005,78.96998 57.701264,87.6207 61.078026,89.925769 74.48706,97.91403 65.09124,91.272748 51.091506,80.91295 36.242719,71.783498 21.509915,62.521605 z"
       id="path3216"
       sodipodi:nodetypes="ccccccccccccccccc" />
    <path
       style="fill:#3b4546;fill-opacity:1;filter:url(#filter3678)"
       d="m 89.329378,166.72976 c -9.233568,-3.85977 -12.054097,-14.57189 -13.543659,-23.53527 -3.001778,-14.10256 -5.422994,-28.45747 -5.099424,-42.92538 4.428027,-3.967015 10.904691,0.25694 15.095433,2.82278 -0.996684,1.37407 -7.23944,-4.867525 -6.311312,-8.595556 -0.559527,-5.171696 3.674161,-8.512546 7.005997,-11.610122 15.581847,-16.056877 35.838377,-26.366855 55.673957,-36.147318 6.77675,-3.043465 13.85803,-5.557578 21.22818,-6.666447 7.87557,2.476313 -0.15332,8.227984 -4.56873,9.132973 -13.22968,7.09996 -23.89441,18.069243 -37.19776,25.079146 -9.17667,5.463556 -18.56769,10.590134 -27.406001,16.602259 4.716029,4.85288 8.488391,-5.745519 13.763951,-5.970035 12.69938,-7.488871 24.694,-16.131112 37.62703,-23.230521 6.04243,-1.431784 -3.38623,4.969407 -5.29797,5.752121 -14.5442,9.521226 -30.04589,17.461394 -44.692953,26.815751 7.352343,4.639569 13.173643,-4.515211 19.129313,-7.50382 19.50037,-13.178131 38.81708,-26.71445 56.78619,-41.946303 6.10337,10.615186 8.63028,22.931968 8.31303,35.096553 0.87354,13.408976 2.27168,28.665279 -6.79294,39.811699 -9.05438,10.86502 -20.53902,19.32509 -31.38265,28.28714 -12.47721,9.50849 -26.2132,18.46624 -41.822427,21.52004 -3.678311,0.24047 -7.456686,-0.69548 -10.507255,-2.78969 z"
       id="path3206" />
    <path
       style="fill:#555e60"
       d="m 180.28673,97.087675 c -0.77769,9.321175 2.08621,20.471375 -5.44198,27.805405 -13.34127,14.53198 -30.09947,25.49543 -47.25425,34.99097 -9.01293,4.50415 -18.35286,9.19561 -28.379237,10.69395 -9.48733,-0.15891 -16.275636,-7.70184 -23.073173,-13.31913 -2.021351,-20.67494 -4.042702,-41.34988 -6.064053,-62.024815 m 9.320869,5.215955 C 76.367562,93.671422 68.531642,90.958911 63.878316,85.484045 57.752023,80.96075 50.903787,77.465366 45.068012,72.540377 c 8.363795,3.356601 16.048234,8.349788 23.6998,12.922705 6.994182,1.653359 13.289228,-3.410034 19.738773,-5.403219 8.514027,-4.365785 16.621485,-9.630846 24.179895,-15.481178 11.38811,-9.494714 19.98979,-22.940135 34.07078,-28.791851 11.77115,-4.56706 24.33133,4.213918 29.36658,14.662846 4.87013,9.748819 3.12589,20.993485 4.04304,31.497057 0.20056,5.962575 0.38348,11.92588 0.63702,17.886522 M 98.722855,89.598024 c 7.320365,-4.861799 14.801155,-9.484376 22.454375,-13.804257 -9.81801,5.215457 -20.11071,9.542643 -29.59389,15.380122 2.231303,2.466131 4.839515,-1.155656 7.139515,-1.575865 z m 11.067185,-0.683851 c 14.08533,-13.231975 28.17568,-26.643141 44.29003,-37.421124 0.85313,3.253004 -7.47791,7.72884 -10.46293,11.006584 -12.51977,10.323167 -24.94687,21.084198 -39.16428,28.995086 1.74028,-0.933254 3.51341,-1.82172 5.33718,-2.580546 z"
       id="path3210" />
    <path
       style="fill:none"
       d="m -0.79998839,95.200008 0,-96.8000049 96.39999539,0 96.399993,0 0,96.8000049 0,96.800002 -96.399993,0 -96.39999539,0 0,-96.800002 z"
       id="path3218" />
    <path
       style="fill:#ed6649;filter:url(#filter3674)"
       d="M 130.30647,62.402848 C 109.76054,50.688917 81.225978,33.513516 60.956258,21.329331 70.971197,14.810248 82.677526,10.391698 94.026399,6.9156229 117.47048,14.02323 136.7043,22.718529 158.16852,34.332161 l -30.15253,18.814424 c -19.22827,11.507084 -56.287021,39.86715 -56.287021,39.86715 0,0 -44.286815,-30.573295 -57.541047,-37.395112 6.261914,-11.3473 17.221408,-16.001682 17.221408,-16.001682 0,0 11.310229,-8.966276 19.857112,-13.958352 20.5148,12.004993 50.646258,33.060954 71.161058,45.065947"
       id="path3214"
       sodipodi:nodetypes="cccccccccc" />
    <path
       style="fill:#9b4135"
       d="M 22.85,58.3 C 37.446179,68.129646 52.160688,77.791423 66.682576,87.726456 71.613384,91.384304 76.544192,95.042152 81.475,98.7 c 2.367144,7.06973 -6.461318,0.916208 -9.280115,0.848808 -2.405269,1.171872 -0.309633,-5.260176 -3.877372,-5.4076 C 57.756936,88.244656 47.757614,81.411416 37.462326,75.072117 29.80344,70.192042 21.983183,65.593512 14.896444,59.889887 c -2.67203,-1.747971 -1.68781,5.001831 -1.988335,7.402592 0.899244,12.535841 3.481066,25.586353 6.571041,37.759471 1.49939,5.22017 3.643753,11.13584 6.708652,15.52944 4.098918,3.66227 8.168623,7.26224 12.528712,10.68942 9.595755,8.36829 20.685277,14.71852 31.026202,22.06013 3.810762,2.85634 7.621522,5.71268 11.432284,8.56902 1.849064,0.64825 6.30616,5.47981 7.857352,5.44439 C 86.729904,138.69623 84.427448,110.04812 82.125,81.4 76.284273,83.507896 69.204815,85.605144 63.438682,82.25268 59.361529,79.3828 54.568674,77.542978 50.354689,74.808329 41.133594,69.393546 32.242662,63.423035 22.85,58.3 z"
       id="path3208"
       sodipodi:nodetypes="cccccccccccccccccc" />
    <path
       style="fill:#1a1a1a;fill-opacity:1"
       d="m 171.19149,48.628954 c -27.35515,17.847997 -53.96013,36.853331 -79.849172,56.747726 -6.667136,4.43529 -4.902025,13.34647 -5.150922,20.17857 0.28717,15.18662 3.350575,30.24649 8.344449,44.56568 C 87.13202,167.04781 78.120443,162.748 76.813168,153.88139 72.63127,135.5874 66.759028,117.0953 68.353982,98.111309 69.128934,92.420093 72.135373,86.882231 77.4972,84.39081 102.73975,68.705092 127.69759,52.554705 153.30567,37.465539 l 4.49242,-2.966511 c 0,0 11.17068,5.426522 12.10862,8.296719 C 143.3535,59.424494 118.6684,78.84083 92.086245,95.425"
       id="path3204"
       sodipodi:nodetypes="ccccccccccc" />
  </g>
  <path
     style="fill:#333333;fill-opacity:1;fill-rule:nonzero;stroke:#000000;stroke-width:0.42002647999999998;stroke-linejoin:round;stroke-miterlimit:4;stroke-opacity:0;filter:url(#filter4072)"
     d="m 167.98043,129.93545 c 0.45122,0.72095 -14.42255,15.04227 -31.24784,25.57305 -8.41264,5.26539 -18.91556,10.96535 -27.38985,12.74007 -7.76693,1.62658 -13.803918,4.61393 -15.32974,0.41092 -1.541067,-4.24501 -2.682134,-6.29001 -3.823201,-12.73502 -0.864738,-4.88424 3.097068,8.48289 6.862975,9.77139 12.610586,4.31468 34.002506,-9.15182 38.208826,-11.78452 16.82527,-10.53078 28.46759,-20.09683 32.71883,-23.97589 z"
     id="path3721"
     sodipodi:nodetypes="cssssasc"
     inkscape:export-filename="/home/klaus/Bilder/dvb/dvb-settings64.png"
     inkscape:export-xdpi="23.900415"
     inkscape:export-ydpi="23.900415" />
  <path
     style="fill:#9c9e9c;fill-opacity:1;stroke:none"
     d="m 152.58335,54.871068 c -20.4,13.8 -9.86619,7.246089 -9.86619,7.246089 0,0 -39.06282,22.816664 -29.8,18 10,-5.2 41.80281,-22.96629 56.6,-34.2 1.94734,-1.478384 -6.6,3.2 -6.6,3.2 l -10.33381,5.753911 z"
     id="path2864"
     sodipodi:nodetypes="ccsscc"
     inkscape:export-filename="/home/klaus/Bilder/dvb/dvb-settings64.png"
     inkscape:export-xdpi="23.900415"
     inkscape:export-ydpi="23.900415" />
  <path
     style="opacity:0.8;fill:#f2f2f2;fill-opacity:1;stroke:none"
     d="M 73.596765,96.412883 C 70.710813,95.483033 68.197424,93.652979 65.545547,92.235356 50.384981,83.232013 35.513976,73.797276 21.04261,63.864824 19.309497,62.449631 16.199661,60.85661 15.477978,59.319679 c 5.171981,2.326468 9.877308,5.457699 14.730214,8.302309 13.633539,8.382075 27.189781,16.900697 40.203293,26.098576 1.07164,0.866891 2.405782,1.586029 3.18528,2.692319 z"
     id="path2876"
     inkscape:export-filename="/home/klaus/Bilder/dvb/dvb-settings64.png"
     inkscape:export-xdpi="23.900415"
     inkscape:export-ydpi="23.900415" />
  <path
     style="opacity:0.80000000000000004;fill:#f2f2f2;fill-opacity:1;stroke:none;filter:url(#filter3834)"
     d="M 122.64863,76.836257 C 137.484,66.640516 154.42644,56.79276 169.13605,46.41526 c 2.43866,0.7178 -3.58785,3.780779 -4.37484,4.859407 -12.77299,9.830507 -27.19504,17.398912 -40.63388,26.272521 -7.57533,4.969052 -14.38097,11.005491 -21.91285,16.026437 -1.83022,1.436527 -4.280643,1.992817 -6.048393,0.254821 -1.678406,-0.705094 2.480115,-0.08105 2.868599,-1.231776 8.223614,-4.681703 15.733084,-10.537336 23.613944,-15.760413 z"
     id="rect2880"
     sodipodi:nodetypes="cccccccc"
     inkscape:export-filename="/home/klaus/Bilder/dvb/dvb-settings64.png"
     inkscape:export-xdpi="23.900415"
     inkscape:export-ydpi="23.900415" />
  <path
     style="fill:#ee5a3f;fill-opacity:1"
     d="M 50.85,26.6 47.775,28 c -12.204654,6.492368 -25.362686,13.293448 -32.587336,25.697101 7.819273,6.159459 9.961391,5.883831 14.991798,8.143221 12.660356,2.997477 23.980984,9.713318 35.220718,16.00274 3.063263,2.69294 9.524055,5.907341 10.065127,6.141814 5.960391,-1.493555 10.695185,-5.8192 16.110402,-8.532339 C 97.574426,71.614112 103.78895,68.118154 109.6923,64.129889 103.20758,58.475669 95.357769,54.701155 88.382556,49.697899 76.26711,41.924518 64.352328,33.697818 51.787951,26.714573 51.487106,26.623247 51.159686,26.649604 50.85,26.6 z"
     id="path14-8"
     sodipodi:nodetypes="ccccccccccc"
     inkscape:export-filename="/home/klaus/Bilder/dvb/dvb-settings64.png"
     inkscape:export-xdpi="23.900415"
     inkscape:export-ydpi="23.900415" />
  <path
     style="fill:#ee5a3f;fill-opacity:1;fill-rule:nonzero;stroke:#000000;stroke-width:0.17677669;stroke-linejoin:round;stroke-miterlimit:4;stroke-opacity:0;stroke-dasharray:none"
     d="M 121.2225,56.74359 C 111.98902,51.192898 102.6493,45.814396 93.395931,40.314264 84.093931,34.691876 74.754189,29.041686 65.366578,23.520162 62.943764,22.85067 61.359826,19.928045 64.886606,19.438378 73.908534,14.33557 83.658502,10.712885 93.51104,7.5789691 c 3.781272,0.540364 7.43716,2.1091325 11.10497,3.2816679 12.08088,4.16956 23.94755,9.044575 35.42597,14.695397 5.40603,2.398123 10.53956,5.303713 15.77232,8.091515 2.12846,1.893592 -3.80203,3.417663 -5.30789,4.713048 -9.44752,6.239946 -19.12723,12.165449 -28.70047,18.191214 l -0.58344,0.191779 0,0 z"
     id="path2917"
     inkscape:export-filename="/home/klaus/Bilder/dvb/dvb-settings64.png"
     inkscape:export-xdpi="23.900415"
     inkscape:export-ydpi="23.900415" />
  <path
     style="fill:#c6cfd8;filter:url(#filter3930)"
     d="m 83.211114,103.395 c -2.66,-2.01 -15.31,-7.29 -10.11,-9.39 2.75,2.51 11.16,4.84 10.11,9.39 z"
     id="path94-0"
     sodipodi:nodetypes="ccc"
     inkscape:export-filename="/home/klaus/Bilder/dvb/dvb-settings64.png"
     inkscape:export-xdpi="23.900415"
     inkscape:export-ydpi="23.900415" />
  <path
     style="fill:#333333;fill-opacity:1;fill-rule:nonzero;stroke:#000000;stroke-width:0.42002648;stroke-linejoin:round;stroke-miterlimit:4;stroke-opacity:0;filter:url(#filter4068)"
     d="m 159.54862,139.19128 c -1.717,0.91518 18.60162,-17.87927 19.6382,-20.79161 1.03657,-2.91233 0.19112,0.25745 1.94597,-11.29889 0.8337,-5.49023 1.31839,-15.748282 0.62867,-26.276673 -0.68973,-10.52839 -2.55387,-21.327117 -5.61782,-28.698692 -0.55593,-1.337519 -1.33299,-4.231764 -2.75326,-4.516107 -4.98462,0.602063 -10.82126,5.893521 -16.62104,9.939359 -4.06816,2.837886 12.16119,-9.294342 16.01418,-5.21177 8.52379,9.031679 7.22674,31.954132 7.25346,37.331607 0.0547,11.009866 0.36396,16.254986 -0.1271,24.088376 -0.43311,6.90897 -13.12652,17.46052 -20.36126,25.4344 z"
     id="path3721-3"
     sodipodi:nodetypes="csssscssssc"
     inkscape:export-filename="/home/klaus/Bilder/dvb/dvb-settings64.png"
     inkscape:export-xdpi="23.900415"
     inkscape:export-ydpi="23.900415" />
  <g
     inkscape:groupmode="layer"
     id="layer1"
     inkscape:label="Ebene 1">
    <path
       style="opacity:0.43086816999999999;fill:#cccccc;fill-opacity:1;fill-rule:nonzero;stroke:none;stroke-width:0.50000000000000000;stroke-linejoin:round;stroke-miterlimit:4;stroke-opacity:0;filter:url(#filter3842)"
       d="m 89.943983,172.62526 c 11.313707,5.7275 -6.647362,-5.23259 -25.314422,-5.23259 -18.667062,0 -47.724575,-18.96064 -53.598695,-40.58792 -1.8128941,-6.6747 1.11801,-20.36075 7.931886,-19.17364 2.86294,0.49878 0.411975,8.70845 0.411975,8.70845 z"
       id="path3073"
       inkscape:connector-curvature="0"
       sodipodi:nodetypes="csaacc" />
  </g>
  <path
     style="fill:#cd4136;filter:url(#filter3978)"
     d="m 14.987157,58.227715 c 0.594578,-0.198489 3.304183,-6.245279 6.10328,-6.002898 0.840637,0.03529 -0.346784,0.551058 0.482739,0.935127 13.941996,8.729149 27.924574,17.397154 41.841171,26.164571 4.738797,3.091504 9.137448,-0.74551 11.63281,5.9632 -2.161524,2.08544 -3.672033,6.97086 -5.666289,7.769883 -2.530904,-0.428676 -3.080013,-2.59577 -5.252966,-3.797807 C 47.394827,77.796988 34.244037,68.656233 17.260907,57.568965 l -1.47375,0.85875 -0.8,-0.2 z"
     id="path40-9"
     sodipodi:nodetypes="cccccccccc"
     inkscape:export-filename="/home/klaus/Bilder/dvb/dvb-settings64.png"
     inkscape:export-xdpi="23.900415"
     inkscape:export-ydpi="23.900415"
     inkscape:connector-curvature="0" />
  <g
     transform="matrix(2.7676814,0,0,2.7224737,23.351689,165.75155)"
     style="display:inline"
     inkscape:label="base"
     id="g2637" />
  <path
     sodipodi:type="arc"
     style="opacity:0.6;color:#000000;fill:url(#radialGradient3414);fill-opacity:1;fill-rule:nonzero;stroke:none;stroke-width:2;marker:none;visibility:visible;display:inline;overflow:visible"
     id="path1425"
     sodipodi:cx="17.5"
     sodipodi:cy="18.25"
     sodipodi:rx="13.5"
     sodipodi:ry="13.75"
     d="m 31,18.25 a 13.5,13.75 0 1 1 -27,0 13.5,13.75 0 1 1 27,0 z"
     transform="matrix(3.2802145,0,0,3.1679711,58.015203,33.068081)" />
  <path
     inkscape:connector-curvature="0"
     style="opacity:0.5;color:#000000;fill:url(#radialGradient3408);fill-opacity:1;fill-rule:nonzero;stroke:none;stroke-width:2;marker:none;visibility:visible;display:inline;overflow:visible"
     d="M 113.84359,45.962738 C 90.273568,46.844921 71.418185,65.97115 71.418185,89.370845 c 0,6.580015 3.883368,12.854975 6.895125,18.272935 -1.306519,-14.778095 5.166223,-18.004227 9.464259,-16.691688 13.039931,3.982094 35.668041,7.601691 58.915981,-4.338194 8.14989,-4.185701 12.90255,6.069687 12.5769,-3.147826 -2.60007,-21.22056 -21.39408,-37.503334 -43.72335,-37.503334 -0.5709,0 -1.13783,-0.02042 -1.70351,0 z"
     id="path4939"
     sodipodi:nodetypes="cscsscsc" />
  <path
     transform="matrix(4.4282902,0,0,4.3559579,-117.06628,71.281743)"
     d="m 62.5,4.5 a 10,10 0 1 1 -20,0 10,10 0 1 1 20,0 z"
     sodipodi:ry="10"
     sodipodi:rx="10"
     sodipodi:cy="4.5"
     sodipodi:cx="52.5"
     id="path2607"
     style="color:#000000;fill:none;stroke:url(#radialGradient3416);stroke-width:1.87499988;stroke-linecap:round;stroke-linejoin:miter;stroke-miterlimit:4;stroke-opacity:1;stroke-dasharray:none;stroke-dashoffset:0;marker:none;visibility:visible;display:inline;overflow:visible"
     sodipodi:type="arc" />
  <path
     sodipodi:type="arc"
     style="opacity:0.04705882;color:#000000;fill:url(#radialGradient3418);fill-opacity:1;fill-rule:nonzero;stroke:none;stroke-width:1;marker:none;visibility:visible;display:inline;overflow:visible"
     id="path23418"
     sodipodi:cx="28.284271"
     sodipodi:cy="30.145554"
     sodipodi:rx="13.258252"
     sodipodi:ry="4.5078058"
     d="m 41.542523,30.145554 a 13.258252,4.5078058 0 1 1 -26.516504,0 13.258252,4.5078058 0 1 1 26.516504,0 z"
     transform="matrix(2.7332514,0.47910909,-0.33660541,1.8580584,89.367948,85.244902)" />
  <g
     style="display:inline"
     transform="matrix(4.273444,0,0,4.1817632,-179.55375,-84.56667)"
     id="g2708">
    <path
       inkscape:connector-curvature="0"
       style="color:#000000;fill:url(#linearGradient3420);fill-opacity:1;fill-rule:nonzero;stroke:url(#linearGradient3422);stroke-width:0.67653471;stroke-linecap:round;stroke-linejoin:round;stroke-miterlimit:4;stroke-opacity:1;stroke-dashoffset:0;marker:none;visibility:visible;display:inline;overflow:visible"
       d="m 76.796351,49.768459 0.647647,3.255175 5.181173,5.213494 c 0.192503,0.193704 0.97147,0.320302 1.942939,-0.65625 0.97147,-0.976552 0.895574,-1.70388 0.647647,-1.953105 l -5.181173,-5.208279 -3.238233,-0.651035 z"
       id="path2682"
       sodipodi:nodetypes="cczzzcc" />
    <path
       inkscape:connector-curvature="0"
       style="opacity:0.19215686;color:#000000;fill:#ffffff;fill-opacity:1;fill-rule:nonzero;stroke:none;stroke-width:0.99999964;marker:none;visibility:visible;display:inline;overflow:visible"
       d="m 79.567301,51.320041 c -0.003,0.0112 0.294101,0.324318 -0.245291,0.864982 -0.539399,0.540663 -1.007144,0.373988 -0.993486,0.360259 l -0.269149,-1.521577 1.507926,0.296336 z"
       id="path2687"
       sodipodi:nodetypes="csccc" />
  </g>
  <path
     inkscape:connector-curvature="0"
     sodipodi:nodetypes="cczzzcc"
     id="path17267"
     d="m 152.18664,127.03416 1.72305,8.71525 20.7565,20.55134 c 1.02083,1.01072 2.5846,0.59323 5.1692,-1.94915 2.5846,-2.54235 3.25099,-3.81497 1.96769,-5.08473 l -20.75651,-20.5378 -8.85993,-1.69491 z"
     style="color:#000000;fill:none;stroke:url(#linearGradient3410);stroke-width:2.74498272;stroke-linecap:round;stroke-linejoin:miter;stroke-miterlimit:4;stroke-opacity:1;stroke-dasharray:none;stroke-dashoffset:0;marker:none;visibility:visible;display:inline;overflow:visible" />
  <path
     inkscape:connector-curvature="0"
     style="opacity:0.15294118;color:#000000;fill:url(#linearGradient3412);fill-opacity:1;fill-rule:nonzero;stroke:none;stroke-width:0.67653471;marker:none;visibility:visible;display:inline;overflow:visible"
     d="m 148.16599,122.16923 c -0.71915,0.23822 -1.12741,0.9802 -0.93482,1.69883 l 2.80442,13.59076 c 0.0699,0.24944 0.20862,0.47555 0.40066,0.65339 l 22.03493,21.82355 c 0.98754,0.97237 2.47836,1.2566 4.27344,0.91479 1.79512,-0.34181 3.90907,-1.46153 6.14308,-3.65904 2.21559,-2.17941 3.3575,-4.12924 3.73927,-5.88061 0.38177,-1.75137 0.0387,-3.35473 -0.93482,-4.31247 l -22.16847,-21.69287 c -0.21795,-0.21031 -0.49853,-0.3477 -0.80128,-0.39204 l -13.75517,-2.74429 c -0.26189,-0.0738 -0.53949,-0.0738 -0.80124,0 z"
     id="path19908"
     sodipodi:nodetypes="cccccsssccccc" />
  <path
     transform="matrix(4.5666743,0,0,4.4920816,-124.33144,70.669186)"
     d="m 62.5,4.5 a 10,10 0 1 1 -20,0 10,10 0 1 1 20,0 z"
     sodipodi:ry="10"
     sodipodi:rx="10"
     sodipodi:cy="4.5"
     sodipodi:cx="52.5"
     id="path2605"
     style="color:#000000;fill:none;stroke:url(#radialGradient3424);stroke-width:0.60606074;stroke-linecap:round;stroke-linejoin:miter;stroke-miterlimit:4;stroke-opacity:1;stroke-dasharray:none;stroke-dashoffset:0;marker:none;visibility:visible;display:inline;overflow:visible"
     sodipodi:type="arc" />
  <path
     transform="matrix(4.8434425,0,0,4.764329,-138.86177,69.444073)"
     d="m 62.5,4.5 a 10,10 0 1 1 -20,0 10,10 0 1 1 20,0 z"
     sodipodi:ry="10"
     sodipodi:rx="10"
     sodipodi:cy="4.5"
     sodipodi:cx="52.5"
     id="path2599"
     style="color:#000000;fill:none;stroke:url(#linearGradient3426);stroke-width:0.57142824;stroke-linecap:round;stroke-linejoin:miter;stroke-miterlimit:4;stroke-opacity:1;stroke-dasharray:none;stroke-dashoffset:0;marker:none;visibility:visible;display:inline;overflow:visible"
     sodipodi:type="arc" />
  <path
     transform="matrix(4.0219171,0,0,3.9562307,-95.73171,73.080481)"
     d="m 62.5,4.5 a 10,10 0 1 1 -20,0 10,10 0 1 1 20,0 z"
     sodipodi:ry="10"
     sodipodi:rx="10"
     sodipodi:cy="4.5"
     sodipodi:cx="52.5"
     id="path4927"
     style="color:#000000;fill:none;stroke:url(#linearGradient3428);stroke-width:0.68814939;stroke-linecap:round;stroke-linejoin:miter;stroke-miterlimit:4;stroke-opacity:1;stroke-dasharray:none;stroke-dashoffset:0;marker:none;visibility:visible;display:inline;overflow:visible"
     sodipodi:type="arc" />
  <path
     sodipodi:type="arc"
     style="opacity:0.16078431;color:#000000;fill:url(#radialGradient3430);fill-opacity:1;fill-rule:nonzero;stroke:none;stroke-width:1;marker:none;visibility:visible;display:inline;overflow:visible"
     id="path11092"
     sodipodi:cx="12.375"
     sodipodi:cy="12.9375"
     sodipodi:rx="9.8125"
     sodipodi:ry="9.8125"
     d="m 22.1875,12.9375 a 9.8125,9.8125 0 1 1 -19.625,0 9.8125,9.8125 0 1 1 19.625,0 z"
     transform="matrix(3.6667406,0,0,3.6068475,70.043062,44.219946)" />
  <path
     sodipodi:type="arc"
     style="opacity:0.072;color:#000000;fill:url(#radialGradient3432);fill-opacity:1;fill-rule:nonzero;stroke:none;stroke-width:1;marker:none;visibility:visible;display:inline;overflow:visible"
     id="path2970"
     sodipodi:cx="28.284271"
     sodipodi:cy="30.145554"
     sodipodi:rx="13.258252"
     sodipodi:ry="4.5078058"
     d="m 41.542523,30.145554 a 13.258252,4.5078058 0 1 1 -26.516504,0 13.258252,4.5078058 0 1 1 26.516504,0 z"
     transform="matrix(4.3890777,0,0,3.2796116,3.731665,48.188496)" />
</svg>
